<?xml version="1.0" encoding="UTF-8"?><svg xmlns="http://www.w3.org/2000/svg" xmlns:xlink="http://www.w3.org/1999/xlink" fill-opacity="1" color-rendering="auto" color-interpolation="auto" text-rendering="auto" stroke="black" stroke-linecap="square" width="511" stroke-miterlimit="10" shape-rendering="auto" stroke-opacity="1" fill="black" stroke-dasharray="none" font-weight="normal" stroke-width="1" height="464" font-family="'Dialog'" font-style="normal" stroke-linejoin="miter" font-size="12px" stroke-dashoffset="0" image-rendering="auto">
  <!--Generated by ySVG 2.5-->
  <defs id="genericDefs"/>
  <g>
    <defs id="defs1">
      <linearGradient x1="470.4" gradientUnits="userSpaceOnUse" x2="676.4" y1="550.7471" y2="683.1206" id="linearGradient1" spreadMethod="reflect">
        <stop stop-opacity="1" stop-color="rgb(232,238,247)" offset="0%"/>
        <stop stop-opacity="1" stop-color="rgb(183,201,227)" offset="100%"/>
      </linearGradient>
      <linearGradient x1="782.85" gradientUnits="userSpaceOnUse" x2="926.15" y1="264.1868" y2="368.1868" id="linearGradient2" spreadMethod="reflect">
        <stop stop-opacity="1" stop-color="rgb(232,238,247)" offset="0%"/>
        <stop stop-opacity="1" stop-color="rgb(183,201,227)" offset="100%"/>
      </linearGradient>
      <clipPath clipPathUnits="userSpaceOnUse" id="clipPath1">
        <path d="M0 0 L511 0 L511 464 L0 464 L0 0 Z"/>
      </clipPath>
      <clipPath clipPathUnits="userSpaceOnUse" id="clipPath2">
        <path d="M455 249 L966 249 L966 713 L455 713 L455 249 Z"/>
      </clipPath>
      <clipPath clipPathUnits="userSpaceOnUse" id="clipPath3">
        <path d="M850 448 L850 476 L950 476 L950 448 Z"/>
      </clipPath>
      <clipPath clipPathUnits="userSpaceOnUse" id="clipPath4">
        <path d="M504 346 L504 374 L604 374 L604 346 Z"/>
      </clipPath>
      <clipPath clipPathUnits="userSpaceOnUse" id="clipPath5">
        <path d="M720 398 L720 426 L820 426 L820 398 Z"/>
      </clipPath>
      <clipPath clipPathUnits="userSpaceOnUse" id="clipPath6">
        <path d="M805 545 L805 573 L905 573 L905 545 Z"/>
      </clipPath>
      <clipPath clipPathUnits="userSpaceOnUse" id="clipPath7">
        <path d="M743 287 L743 315 L843 315 L843 287 Z"/>
      </clipPath>
      <clipPath clipPathUnits="userSpaceOnUse" id="clipPath8">
        <path d="M812 320 L812 348 L912 348 L912 320 Z"/>
      </clipPath>
      <clipPath clipPathUnits="userSpaceOnUse" id="clipPath9">
        <path d="M850 287 L850 315 L950 315 L950 287 Z"/>
      </clipPath>
    </defs>
    <g fill="white" text-rendering="geometricPrecision" shape-rendering="geometricPrecision" transform="translate(-455,-249)" stroke="white">
      <rect x="455" width="511" height="464" y="249" clip-path="url(#clipPath2)" stroke="none"/>
    </g>
    <g fill="url(#linearGradient1)" text-rendering="geometricPrecision" shape-rendering="geometricPrecision" transform="matrix(1,0,0,1,-455,-249)" stroke="url(#linearGradient1)">
      <path d="M496.15 620.905 C470.4 583.8405 496.15 550.7471 538.38 574.5743 C538.38 550.7471 608.42 550.7471 608.42 574.5743 C650.65 550.7471 676.4 583.8405 650.65 612.9626 C676.4 650.0272 650.65 683.1206 618.72 659.2934 C608.42 683.1206 538.38 683.1206 548.68 659.2934 C496.15 683.1206 470.4 650.0272 496.15 620.905 Z" stroke="none" clip-path="url(#clipPath2)"/>
    </g>
    <g text-rendering="geometricPrecision" stroke-miterlimit="1.45" shape-rendering="geometricPrecision" transform="matrix(1,0,0,1,-455,-249)" stroke-linecap="butt">
      <path fill="none" d="M496.15 620.905 C470.4 583.8405 496.15 550.7471 538.38 574.5743 C538.38 550.7471 608.42 550.7471 608.42 574.5743 C650.65 550.7471 676.4 583.8405 650.65 612.9626 C676.4 650.0272 650.65 683.1206 618.72 659.2934 C608.42 683.1206 538.38 683.1206 548.68 659.2934 C496.15 683.1206 470.4 650.0272 496.15 620.905 Z" clip-path="url(#clipPath2)"/>
      <text x="564.4" xml:space="preserve" y="621.6477" clip-path="url(#clipPath2)" font-family="sans-serif" stroke="none">sky</text>
    </g>
    <g fill="url(#linearGradient2)" text-rendering="geometricPrecision" shape-rendering="geometricPrecision" transform="matrix(1,0,0,1,-455,-249)" stroke="url(#linearGradient2)">
      <path d="M800.7625 319.3068 C782.85 290.1868 800.7625 264.1868 830.139 282.9068 C830.139 264.1868 878.861 264.1868 878.861 282.9068 C908.2375 264.1868 926.15 290.1868 908.2375 313.0668 C926.15 342.1868 908.2375 368.1868 886.026 349.4668 C878.861 368.1868 830.139 368.1868 837.304 349.4668 C800.7625 368.1868 782.85 342.1868 800.7625 319.3068 Z" stroke="none" clip-path="url(#clipPath2)"/>
    </g>
    <g text-rendering="geometricPrecision" stroke-miterlimit="1.45" shape-rendering="geometricPrecision" transform="matrix(1,0,0,1,-455,-249)" stroke-linecap="butt">
      <path fill="none" d="M800.7625 319.3068 C782.85 290.1868 800.7625 264.1868 830.139 282.9068 C830.139 264.1868 878.861 264.1868 878.861 282.9068 C908.2375 264.1868 926.15 290.1868 908.2375 313.0668 C926.15 342.1868 908.2375 368.1868 886.026 349.4668 C878.861 368.1868 830.139 368.1868 837.304 349.4668 C800.7625 368.1868 782.85 342.1868 800.7625 319.3068 Z" clip-path="url(#clipPath2)"/>
    </g>
    <g fill="rgb(255,204,0)" text-rendering="geometricPrecision" shape-rendering="geometricPrecision" transform="matrix(1,0,0,1,-455,-249)" stroke="rgb(255,204,0)">
      <ellipse rx="55" ry="25" clip-path="url(#clipPath2)" cx="525.4" cy="559.7471" stroke="none"/>
    </g>
    <g font-size="13px" stroke-linecap="butt" transform="matrix(1,0,0,1,-455,-249)" text-rendering="geometricPrecision" font-family="sans-serif" shape-rendering="geometricPrecision" stroke-miterlimit="1.45">
      <text x="493.2491" xml:space="preserve" y="564.8538" clip-path="url(#clipPath2)" stroke="none">Subsystem</text>
      <ellipse rx="55" fill="none" ry="25" clip-path="url(#clipPath2)" cx="525.4" cy="559.7471"/>
    </g>
    <g fill="rgb(255,204,0)" text-rendering="geometricPrecision" shape-rendering="geometricPrecision" transform="matrix(1,0,0,1,-455,-249)" stroke="rgb(255,204,0)">
      <ellipse rx="55" ry="25" clip-path="url(#clipPath2)" cx="652.7" cy="672.3735" stroke="none"/>
    </g>
    <g font-size="13px" stroke-linecap="butt" transform="matrix(1,0,0,1,-455,-249)" text-rendering="geometricPrecision" font-family="sans-serif" shape-rendering="geometricPrecision" stroke-miterlimit="1.45">
      <text x="615.1155" xml:space="preserve" y="677.4802" clip-path="url(#clipPath2)" stroke="none">ArenaLogger</text>
      <ellipse rx="55" fill="none" ry="25" clip-path="url(#clipPath2)" cx="652.7" cy="672.3735"/>
    </g>
    <g fill="rgb(255,204,0)" text-rendering="geometricPrecision" shape-rendering="geometricPrecision" transform="matrix(1,0,0,1,-455,-249)" stroke="rgb(255,204,0)">
      <ellipse rx="55" ry="25" clip-path="url(#clipPath2)" cx="742.3" cy="512.3735" stroke="none"/>
    </g>
    <g font-size="13px" stroke-linecap="butt" transform="matrix(1,0,0,1,-455,-249)" text-rendering="geometricPrecision" font-family="sans-serif" shape-rendering="geometricPrecision" stroke-miterlimit="1.45">
      <text x="700.0309" xml:space="preserve" y="517.4802" clip-path="url(#clipPath2)" stroke="none">ServerListener</text>
      <ellipse rx="55" fill="none" ry="25" clip-path="url(#clipPath2)" cx="742.3" cy="512.3735"/>
    </g>
    <g fill="rgb(255,204,0)" text-rendering="geometricPrecision" shape-rendering="geometricPrecision" transform="matrix(1,0,0,1,-455,-249)" stroke="rgb(255,204,0)">
      <ellipse rx="65.15" ry="25" clip-path="url(#clipPath2)" cx="662.85" cy="604.3735" stroke="none"/>
    </g>
    <g font-size="13px" stroke-linecap="butt" transform="matrix(1,0,0,1,-455,-249)" text-rendering="geometricPrecision" font-family="sans-serif" shape-rendering="geometricPrecision" stroke-miterlimit="1.45">
      <text x="607.5746" xml:space="preserve" y="609.4802" clip-path="url(#clipPath2)" stroke="none">SubsystemListener</text>
      <ellipse rx="65.15" fill="none" ry="25" clip-path="url(#clipPath2)" cx="662.85" cy="604.3735"/>
    </g>
    <g fill="rgb(255,204,0)" text-rendering="geometricPrecision" shape-rendering="geometricPrecision" transform="matrix(1,0,0,1,-455,-249)" stroke="rgb(255,204,0)">
      <ellipse rx="55" ry="25" clip-path="url(#clipPath2)" cx="610.7" cy="462.3735" stroke="none"/>
    </g>
    <g font-size="13px" stroke-linecap="butt" transform="matrix(1,0,0,1,-455,-249)" text-rendering="geometricPrecision" font-family="sans-serif" shape-rendering="geometricPrecision" stroke-miterlimit="1.45">
      <text x="591.5555" xml:space="preserve" y="467.4802" clip-path="url(#clipPath2)" stroke="none">Server</text>
      <ellipse rx="55" fill="none" ry="25" clip-path="url(#clipPath2)" cx="610.7" cy="462.3735"/>
    </g>
    <g fill="rgb(255,204,0)" text-rendering="geometricPrecision" shape-rendering="geometricPrecision" transform="matrix(1,0,0,1,-455,-249)" stroke="rgb(255,204,0)">
      <rect x="851" width="98" height="26" y="449" clip-path="url(#clipPath2)" stroke="none"/>
      <rect x="850" y="448" clip-path="url(#clipPath2)" fill="yellow" width="1" height="28" stroke="none"/>
      <rect x="851" y="448" clip-path="url(#clipPath2)" fill="yellow" width="98" height="1" stroke="none"/>
      <rect x="851" y="475" clip-path="url(#clipPath2)" fill="rgb(178,142,0)" width="99" height="1" stroke="none"/>
      <rect x="949" y="448" clip-path="url(#clipPath2)" fill="rgb(178,142,0)" width="1" height="27" stroke="none"/>
    </g>
    <g font-size="13px" stroke-linecap="butt" transform="matrix(1,0,0,1,-455,-249)" text-rendering="geometricPrecision" font-family="sans-serif" shape-rendering="geometricPrecision" font-weight="bold" stroke-miterlimit="1.45">
      <text x="865.4301" xml:space="preserve" y="466.4434" clip-path="url(#clipPath3)" stroke="none">ServerExec</text>
    </g>
    <g fill="rgb(255,204,0)" text-rendering="geometricPrecision" shape-rendering="geometricPrecision" transform="matrix(1,0,0,1,-455,-249)" stroke="rgb(255,204,0)">
      <rect x="505" width="98" height="26" y="347" clip-path="url(#clipPath2)" stroke="none"/>
      <rect x="504" y="346" clip-path="url(#clipPath2)" fill="yellow" width="1" height="28" stroke="none"/>
      <rect x="505" y="346" clip-path="url(#clipPath2)" fill="yellow" width="98" height="1" stroke="none"/>
      <rect x="505" y="373" clip-path="url(#clipPath2)" fill="rgb(178,142,0)" width="99" height="1" stroke="none"/>
      <rect x="603" y="346" clip-path="url(#clipPath2)" fill="rgb(178,142,0)" width="1" height="27" stroke="none"/>
    </g>
    <g font-size="13px" stroke-linecap="butt" transform="matrix(1,0,0,1,-455,-249)" text-rendering="geometricPrecision" font-family="sans-serif" shape-rendering="geometricPrecision" font-weight="bold" stroke-miterlimit="1.45">
      <text x="512.8069" xml:space="preserve" y="364.0698" clip-path="url(#clipPath4)" stroke="none">VanillaServer</text>
    </g>
    <g fill="rgb(255,204,0)" text-rendering="geometricPrecision" shape-rendering="geometricPrecision" transform="matrix(1,0,0,1,-455,-249)" stroke="rgb(255,204,0)">
      <rect x="721" width="98" height="26" y="399" clip-path="url(#clipPath2)" stroke="none"/>
      <rect x="720" y="398" clip-path="url(#clipPath2)" fill="yellow" width="1" height="28" stroke="none"/>
      <rect x="721" y="398" clip-path="url(#clipPath2)" fill="yellow" width="98" height="1" stroke="none"/>
      <rect x="721" y="425" clip-path="url(#clipPath2)" fill="rgb(178,142,0)" width="99" height="1" stroke="none"/>
      <rect x="819" y="398" clip-path="url(#clipPath2)" fill="rgb(178,142,0)" width="1" height="27" stroke="none"/>
    </g>
    <g font-size="13px" stroke-linecap="butt" transform="matrix(1,0,0,1,-455,-249)" text-rendering="geometricPrecision" font-family="sans-serif" shape-rendering="geometricPrecision" font-weight="bold" stroke-miterlimit="1.45">
      <text x="728.5746" xml:space="preserve" y="416.2566" clip-path="url(#clipPath5)" stroke="none">ServerShared</text>
    </g>
    <g fill="rgb(255,204,0)" text-rendering="geometricPrecision" shape-rendering="geometricPrecision" transform="matrix(1,0,0,1,-455,-249)" stroke="rgb(255,204,0)">
      <rect x="806" width="98" height="26" y="546" clip-path="url(#clipPath2)" stroke="none"/>
      <rect x="805" y="545" clip-path="url(#clipPath2)" fill="yellow" width="1" height="28" stroke="none"/>
      <rect x="806" y="545" clip-path="url(#clipPath2)" fill="yellow" width="98" height="1" stroke="none"/>
      <rect x="806" y="572" clip-path="url(#clipPath2)" fill="rgb(178,142,0)" width="99" height="1" stroke="none"/>
      <rect x="904" y="545" clip-path="url(#clipPath2)" fill="rgb(178,142,0)" width="1" height="27" stroke="none"/>
    </g>
    <g font-size="13px" stroke-linecap="butt" transform="matrix(1,0,0,1,-455,-249)" text-rendering="geometricPrecision" font-family="sans-serif" shape-rendering="geometricPrecision" font-weight="bold" stroke-miterlimit="1.45">
      <text x="813.5841" xml:space="preserve" y="563.8169" clip-path="url(#clipPath6)" stroke="none">ServerLogger</text>
    </g>
    <g fill="rgb(255,204,0)" text-rendering="geometricPrecision" shape-rendering="geometricPrecision" transform="matrix(1,0,0,1,-455,-249)" stroke="rgb(255,204,0)">
      <rect x="744" width="98" height="26" y="288" clip-path="url(#clipPath2)" stroke="none"/>
      <rect x="743" y="287" clip-path="url(#clipPath2)" fill="yellow" width="1" height="28" stroke="none"/>
      <rect x="744" y="287" clip-path="url(#clipPath2)" fill="yellow" width="98" height="1" stroke="none"/>
      <rect x="744" y="314" clip-path="url(#clipPath2)" fill="rgb(178,142,0)" width="99" height="1" stroke="none"/>
      <rect x="842" y="287" clip-path="url(#clipPath2)" fill="rgb(178,142,0)" width="1" height="27" stroke="none"/>
    </g>
    <g font-size="13px" stroke-linecap="butt" transform="matrix(1,0,0,1,-455,-249)" text-rendering="geometricPrecision" font-family="sans-serif" shape-rendering="geometricPrecision" font-weight="bold" stroke-miterlimit="1.45">
      <text x="760.4637" xml:space="preserve" y="305.2566" clip-path="url(#clipPath7)" stroke="none">SkyHandle</text>
    </g>
    <g fill="rgb(255,204,0)" text-rendering="geometricPrecision" shape-rendering="geometricPrecision" transform="matrix(1,0,0,1,-455,-249)" stroke="rgb(255,204,0)">
      <rect x="813" width="98" height="26" y="321" clip-path="url(#clipPath2)" stroke="none"/>
      <rect x="812" y="320" clip-path="url(#clipPath2)" fill="yellow" width="1" height="28" stroke="none"/>
      <rect x="813" y="320" clip-path="url(#clipPath2)" fill="yellow" width="98" height="1" stroke="none"/>
      <rect x="813" y="347" clip-path="url(#clipPath2)" fill="rgb(178,142,0)" width="99" height="1" stroke="none"/>
      <rect x="911" y="320" clip-path="url(#clipPath2)" fill="rgb(178,142,0)" width="1" height="27" stroke="none"/>
    </g>
    <g font-size="13px" stroke-linecap="butt" transform="matrix(1,0,0,1,-455,-249)" text-rendering="geometricPrecision" font-family="sans-serif" shape-rendering="geometricPrecision" font-weight="bold" stroke-miterlimit="1.45">
      <text x="843.5759" xml:space="preserve" y="338.2566" clip-path="url(#clipPath8)" stroke="none">Arena</text>
    </g>
    <g fill="rgb(255,204,0)" text-rendering="geometricPrecision" shape-rendering="geometricPrecision" transform="matrix(1,0,0,1,-455,-249)" stroke="rgb(255,204,0)">
      <rect x="851" width="98" height="26" y="288" clip-path="url(#clipPath2)" stroke="none"/>
      <rect x="850" y="287" clip-path="url(#clipPath2)" fill="yellow" width="1" height="28" stroke="none"/>
      <rect x="851" y="287" clip-path="url(#clipPath2)" fill="yellow" width="98" height="1" stroke="none"/>
      <rect x="851" y="314" clip-path="url(#clipPath2)" fill="rgb(178,142,0)" width="99" height="1" stroke="none"/>
      <rect x="949" y="287" clip-path="url(#clipPath2)" fill="rgb(178,142,0)" width="1" height="27" stroke="none"/>
    </g>
    <g font-size="13px" stroke-linecap="butt" transform="matrix(1,0,0,1,-455,-249)" text-rendering="geometricPrecision" font-family="sans-serif" shape-rendering="geometricPrecision" font-weight="bold" stroke-miterlimit="1.45">
      <text x="864.7286" xml:space="preserve" y="305.2566" clip-path="url(#clipPath9)" stroke="none">Scoreboard</text>
    </g>
    <g text-rendering="geometricPrecision" stroke-miterlimit="1.45" stroke-dasharray="6,2" shape-rendering="geometricPrecision" transform="matrix(1,0,0,1,-455,-249)" stroke-linecap="butt">
      <path fill="none" d="M683.3437 580.6426 L712.3992 546.9974" clip-path="url(#clipPath2)"/>
      <path fill="white" d="M722.2032 535.6448 L707.2046 543.8327 L716.2867 551.6759 Z" clip-path="url(#clipPath2)" stroke="none"/>
      <path fill="none" stroke-dasharray="none" d="M722.2032 535.6448 L707.2046 543.8327 L716.2867 551.6759 Z" clip-path="url(#clipPath2)"/>
      <path fill="none" d="M613.1141 588.2256 L584.4222 578.9101" clip-path="url(#clipPath2)"/>
      <path fill="white" d="M570.1554 574.278 L583.5206 584.9257 L587.2263 573.5121 Z" clip-path="url(#clipPath2)" stroke="none"/>
      <path fill="none" stroke-dasharray="none" d="M570.1554 574.278 L583.5206 584.9257 L587.2263 573.5121 Z" clip-path="url(#clipPath2)"/>
      <path fill="none" d="M700.1005 496.3403 L666.9216 483.7343" clip-path="url(#clipPath2)"/>
      <path fill="white" d="M652.8995 478.4068 L665.7253 489.6983 L669.9874 478.4807 Z" clip-path="url(#clipPath2)" stroke="none"/>
      <path fill="none" stroke-dasharray="none" d="M652.8995 478.4068 L665.7253 489.6983 L669.9874 478.4807 Z" clip-path="url(#clipPath2)"/>
      <path fill="none" d="M545.7465 536.5206 L580.4695 496.883" clip-path="url(#clipPath2)"/>
      <path fill="white" d="M590.3535 485.5999 L575.2973 493.6816 L584.3237 501.5888 Z" clip-path="url(#clipPath2)" stroke="none"/>
      <path fill="none" stroke-dasharray="none" d="M590.3535 485.5999 L575.2973 493.6816 L584.3237 501.5888 Z" clip-path="url(#clipPath2)"/>
      <path fill="none" d="M635.7046 440.1065 L710.5 373.5 L789.2802 342.1448" clip-path="url(#clipPath2)"/>
      <path d="M792.9966 340.6656 L779.6285 339.5285 L792.9966 340.6656 L784.066 350.6778 Z" clip-path="url(#clipPath2)" stroke="none"/>
      <path fill="none" stroke-miterlimit="10" stroke-dasharray="none" d="M792.9966 340.6656 L779.6285 339.5285 L792.9966 340.6656 L784.066 350.6778 Z" clip-path="url(#clipPath2)" stroke-linecap="square"/>
      <path fill="none" d="M856.4514 476.375 L792.2578 496.619" clip-path="url(#clipPath2)"/>
      <path d="M788.4429 497.822 L801.6919 499.9351 L788.4429 497.822 L798.0828 488.4907 Z" clip-path="url(#clipPath2)" stroke="none"/>
      <path fill="none" stroke-miterlimit="10" stroke-dasharray="none" d="M788.4429 497.822 L801.6919 499.9351 L788.4429 497.822 L798.0828 488.4907 Z" clip-path="url(#clipPath2)" stroke-linecap="square"/>
      <path fill="none" d="M896.4028 448.3473 L870.4869 366.609" clip-path="url(#clipPath2)"/>
      <path d="M869.278 362.7961 L867.1854 376.0482 L869.278 362.7961 L878.6241 372.4214 Z" clip-path="url(#clipPath2)" stroke="none"/>
      <path fill="none" stroke-miterlimit="10" stroke-dasharray="none" d="M869.278 362.7961 L867.1854 376.0482 L869.278 362.7961 L878.6241 372.4214 Z" clip-path="url(#clipPath2)" stroke-linecap="square"/>
      <path fill="none" d="M561.7658 374.0214 L590.0051 425.0082" clip-path="url(#clipPath2)"/>
      <path fill="white" d="M597.2726 438.13 L594.7693 421.2263 L584.2719 427.0404 Z" clip-path="url(#clipPath2)" stroke="none"/>
      <path fill="none" stroke-dasharray="none" d="M597.2726 438.13 L594.7693 421.2263 L584.2719 427.0404 Z" clip-path="url(#clipPath2)"/>
      <path fill="none" stroke-dasharray="none" d="M864.5731 448.3688 L807.1403 426.1967" clip-path="url(#clipPath2)"/>
      <path fill="none" d="M655.9816 448.1835 L721.4047 427.6816" clip-path="url(#clipPath2)"/>
      <path d="M725.2216 426.4855 L711.9765 424.3485 L725.2216 426.4855 L715.5649 435.7994 Z" clip-path="url(#clipPath2)" stroke="none"/>
      <path fill="none" stroke-miterlimit="10" stroke-dasharray="none" d="M725.2216 426.4855 L711.9765 424.3485 L725.2216 426.4855 L715.5649 435.7994 Z" clip-path="url(#clipPath2)" stroke-linecap="square"/>
      <path fill="none" d="M894.379 476.3757 L864.4004 541.2452" clip-path="url(#clipPath2)"/>
      <path d="M862.7224 544.8762 L873.2029 536.5002 L862.7224 544.8762 L862.3099 531.4662 Z" clip-path="url(#clipPath2)" stroke="none"/>
      <path fill="none" stroke-miterlimit="10" stroke-dasharray="none" d="M862.7224 544.8762 L873.2029 536.5002 L862.7224 544.8762 L862.3099 531.4662 Z" clip-path="url(#clipPath2)" stroke-linecap="square"/>
      <path fill="none" d="M830.5803 573.7567 L700.6902 645.7677" clip-path="url(#clipPath2)"/>
      <path fill="white" d="M687.5715 653.0408 L704.4741 650.5303 L698.6556 640.0353 Z" clip-path="url(#clipPath2)" stroke="none"/>
      <path fill="none" stroke-dasharray="none" d="M687.5715 653.0408 L704.4741 650.5303 L698.6556 640.0353 Z" clip-path="url(#clipPath2)"/>
    </g>
  </g>
</svg>
