<?xml version="1.0" encoding="UTF-8"?><svg xmlns="http://www.w3.org/2000/svg" xmlns:xlink="http://www.w3.org/1999/xlink" fill-opacity="1" color-rendering="auto" color-interpolation="auto" text-rendering="auto" stroke="black" stroke-linecap="square" width="747" stroke-miterlimit="10" shape-rendering="auto" stroke-opacity="1" fill="black" stroke-dasharray="none" font-weight="normal" stroke-width="1" height="602" font-family="'Dialog'" font-style="normal" stroke-linejoin="miter" font-size="12px" stroke-dashoffset="0" image-rendering="auto">
  <!--Generated by ySVG 2.5-->
  <defs id="genericDefs"/>
  <g>
    <defs id="defs1">
      <linearGradient x1="369.5" gradientUnits="userSpaceOnUse" x2="594.5" y1="63.6875" y2="232.6875" id="linearGradient1" spreadMethod="reflect">
        <stop stop-opacity="1" stop-color="rgb(232,238,247)" offset="0%"/>
        <stop stop-opacity="1" stop-color="rgb(183,201,227)" offset="100%"/>
      </linearGradient>
      <clipPath clipPathUnits="userSpaceOnUse" id="clipPath1">
        <path d="M0 0 L747 0 L747 602 L0 602 L0 0 Z"/>
      </clipPath>
      <clipPath clipPathUnits="userSpaceOnUse" id="clipPath2">
        <path d="M2 48 L749 48 L749 650 L2 650 L2 48 Z"/>
      </clipPath>
      <clipPath clipPathUnits="userSpaceOnUse" id="clipPath3">
        <path d="M209 270 L209 298 L309 298 L309 270 Z"/>
      </clipPath>
      <clipPath clipPathUnits="userSpaceOnUse" id="clipPath4">
        <path d="M432 438 L432 466 L532 466 L532 438 Z"/>
      </clipPath>
      <clipPath clipPathUnits="userSpaceOnUse" id="clipPath5">
        <path d="M384 348 L384 376 L484 376 L484 348 Z"/>
      </clipPath>
      <clipPath clipPathUnits="userSpaceOnUse" id="clipPath6">
        <path d="M302 549 L302 577 L402 577 L402 549 Z"/>
      </clipPath>
      <clipPath clipPathUnits="userSpaceOnUse" id="clipPath7">
        <path d="M241 607 L241 635 L341 635 L341 607 Z"/>
      </clipPath>
      <clipPath clipPathUnits="userSpaceOnUse" id="clipPath8">
        <path d="M374 607 L374 635 L474 635 L474 607 Z"/>
      </clipPath>
      <clipPath clipPathUnits="userSpaceOnUse" id="clipPath9">
        <path d="M302 491 L302 519 L402 519 L402 491 Z"/>
      </clipPath>
      <clipPath clipPathUnits="userSpaceOnUse" id="clipPath10">
        <path d="M172 519 L172 547 L272 547 L272 519 Z"/>
      </clipPath>
      <clipPath clipPathUnits="userSpaceOnUse" id="clipPath11">
        <path d="M595 452 L595 480 L695 480 L695 452 Z"/>
      </clipPath>
      <clipPath clipPathUnits="userSpaceOnUse" id="clipPath12">
        <path d="M432 506 L432 534 L532 534 L532 506 Z"/>
      </clipPath>
      <clipPath clipPathUnits="userSpaceOnUse" id="clipPath13">
        <path d="M37 414 L37 442 L137 442 L137 414 Z"/>
      </clipPath>
      <clipPath clipPathUnits="userSpaceOnUse" id="clipPath14">
        <path d="M17 349 L17 377 L117 377 L117 349 Z"/>
      </clipPath>
      <clipPath clipPathUnits="userSpaceOnUse" id="clipPath15">
        <path d="M191 127 L191 155 L291 155 L291 127 Z"/>
      </clipPath>
      <clipPath clipPathUnits="userSpaceOnUse" id="clipPath16">
        <path d="M256 69 L256 97 L356 97 L356 69 Z"/>
      </clipPath>
      <clipPath clipPathUnits="userSpaceOnUse" id="clipPath17">
        <path d="M126 69 L126 97 L226 97 L226 69 Z"/>
      </clipPath>
      <clipPath clipPathUnits="userSpaceOnUse" id="clipPath18">
        <path d="M392 179 L392 207 L492 207 L492 179 Z"/>
      </clipPath>
      <clipPath clipPathUnits="userSpaceOnUse" id="clipPath19">
        <path d="M522 139 L522 167 L622 167 L622 139 Z"/>
      </clipPath>
      <clipPath clipPathUnits="userSpaceOnUse" id="clipPath20">
        <path d="M392 100 L392 128 L492 128 L492 100 Z"/>
      </clipPath>
      <clipPath clipPathUnits="userSpaceOnUse" id="clipPath21">
        <path d="M481 570 L481 598 L581 598 L581 570 Z"/>
      </clipPath>
      <clipPath clipPathUnits="userSpaceOnUse" id="clipPath22">
        <path d="M538 393 L538 421 L638 421 L638 393 Z"/>
      </clipPath>
    </defs>
    <g fill="white" text-rendering="geometricPrecision" shape-rendering="geometricPrecision" transform="translate(-2,-48)" stroke="white">
      <rect x="2" width="747" height="602" y="48" clip-path="url(#clipPath2)" stroke="none"/>
    </g>
    <g fill="url(#linearGradient1)" text-rendering="geometricPrecision" shape-rendering="geometricPrecision" transform="matrix(1,0,0,1,-2,-48)" stroke="url(#linearGradient1)">
      <path d="M397.625 153.2575 C369.5 105.9375 397.625 63.6875 443.75 94.1075 C443.75 63.6875 520.25 63.6875 520.25 94.1075 C566.375 63.6875 594.5 105.9375 566.375 143.1175 C594.5 190.4375 566.375 232.6875 531.5 202.2675 C520.25 232.6875 443.75 232.6875 455 202.2675 C397.625 232.6875 369.5 190.4375 397.625 153.2575 Z" stroke="none" clip-path="url(#clipPath2)"/>
    </g>
    <g text-rendering="geometricPrecision" stroke-miterlimit="1.45" shape-rendering="geometricPrecision" transform="matrix(1,0,0,1,-2,-48)" stroke-linecap="butt">
      <path fill="none" d="M397.625 153.2575 C369.5 105.9375 397.625 63.6875 443.75 94.1075 C443.75 63.6875 520.25 63.6875 520.25 94.1075 C566.375 63.6875 594.5 105.9375 566.375 143.1175 C594.5 190.4375 566.375 232.6875 531.5 202.2675 C520.25 232.6875 443.75 232.6875 455 202.2675 C397.625 232.6875 369.5 190.4375 397.625 153.2575 Z" clip-path="url(#clipPath2)"/>
      <text x="459.9893" xml:space="preserve" y="152.9014" clip-path="url(#clipPath2)" font-family="sans-serif" stroke="none">External</text>
    </g>
    <g fill="rgb(255,204,0)" text-rendering="geometricPrecision" shape-rendering="geometricPrecision" transform="matrix(1,0,0,1,-2,-48)" stroke="rgb(255,204,0)">
      <ellipse rx="68" ry="25" clip-path="url(#clipPath2)" cx="403" cy="293.3438" stroke="none"/>
    </g>
    <g font-size="13px" stroke-linecap="butt" transform="matrix(1,0,0,1,-2,-48)" text-rendering="geometricPrecision" font-family="sans-serif" shape-rendering="geometricPrecision" stroke-miterlimit="1.45">
      <text x="347.7246" xml:space="preserve" y="298.4504" clip-path="url(#clipPath2)" stroke="none">SubsystemListener</text>
      <ellipse rx="68" fill="none" ry="25" clip-path="url(#clipPath2)" cx="403" cy="293.3438"/>
    </g>
    <g fill="rgb(255,204,0)" text-rendering="geometricPrecision" shape-rendering="geometricPrecision" transform="matrix(1,0,0,1,-2,-48)" stroke="rgb(255,204,0)">
      <rect x="210" width="98" height="26" y="271" clip-path="url(#clipPath2)" stroke="none"/>
      <rect x="209" y="270" clip-path="url(#clipPath2)" fill="yellow" width="1" height="28" stroke="none"/>
      <rect x="210" y="270" clip-path="url(#clipPath2)" fill="yellow" width="98" height="1" stroke="none"/>
      <rect x="210" y="297" clip-path="url(#clipPath2)" fill="rgb(178,142,0)" width="99" height="1" stroke="none"/>
      <rect x="308" y="270" clip-path="url(#clipPath2)" fill="rgb(178,142,0)" width="1" height="27" stroke="none"/>
    </g>
    <g font-size="13px" stroke-linecap="butt" transform="matrix(1,0,0,1,-2,-48)" text-rendering="geometricPrecision" font-family="sans-serif" shape-rendering="geometricPrecision" font-weight="bold" stroke-miterlimit="1.45">
      <text x="240.5759" xml:space="preserve" y="288.5698" clip-path="url(#clipPath3)" stroke="none">Arena</text>
    </g>
    <g fill="rgb(255,204,0)" text-rendering="geometricPrecision" shape-rendering="geometricPrecision" transform="matrix(1,0,0,1,-2,-48)" stroke="rgb(255,204,0)">
      <rect x="433" width="98" height="26" y="439" clip-path="url(#clipPath2)" stroke="none"/>
      <rect x="432" y="438" clip-path="url(#clipPath2)" fill="yellow" width="1" height="28" stroke="none"/>
      <rect x="433" y="438" clip-path="url(#clipPath2)" fill="yellow" width="98" height="1" stroke="none"/>
      <rect x="433" y="465" clip-path="url(#clipPath2)" fill="rgb(178,142,0)" width="99" height="1" stroke="none"/>
      <rect x="531" y="438" clip-path="url(#clipPath2)" fill="rgb(178,142,0)" width="1" height="27" stroke="none"/>
    </g>
    <g font-size="13px" stroke-linecap="butt" transform="matrix(1,0,0,1,-2,-48)" text-rendering="geometricPrecision" font-family="sans-serif" shape-rendering="geometricPrecision" font-weight="bold" stroke-miterlimit="1.45">
      <text x="470.4346" xml:space="preserve" y="456.0698" clip-path="url(#clipPath4)" stroke="none">Sky</text>
    </g>
    <g fill="rgb(255,204,0)" text-rendering="geometricPrecision" shape-rendering="geometricPrecision" transform="matrix(1,0,0,1,-2,-48)" stroke="rgb(255,204,0)">
      <rect x="385" width="98" height="26" y="349" clip-path="url(#clipPath2)" stroke="none"/>
      <rect x="384" y="348" clip-path="url(#clipPath2)" fill="yellow" width="1" height="28" stroke="none"/>
      <rect x="385" y="348" clip-path="url(#clipPath2)" fill="yellow" width="98" height="1" stroke="none"/>
      <rect x="385" y="375" clip-path="url(#clipPath2)" fill="rgb(178,142,0)" width="99" height="1" stroke="none"/>
      <rect x="483" y="348" clip-path="url(#clipPath2)" fill="rgb(178,142,0)" width="1" height="27" stroke="none"/>
    </g>
    <g font-size="13px" stroke-linecap="butt" transform="matrix(1,0,0,1,-2,-48)" text-rendering="geometricPrecision" font-family="sans-serif" shape-rendering="geometricPrecision" font-weight="bold" stroke-miterlimit="1.45">
      <text x="401.3637" xml:space="preserve" y="366.4136" clip-path="url(#clipPath5)" stroke="none">SkyHandle</text>
    </g>
    <g fill="rgb(255,204,0)" text-rendering="geometricPrecision" shape-rendering="geometricPrecision" transform="matrix(1,0,0,1,-2,-48)" stroke="rgb(255,204,0)">
      <rect x="303" width="98" height="26" y="550" clip-path="url(#clipPath2)" stroke="none"/>
      <rect x="302" y="549" clip-path="url(#clipPath2)" fill="yellow" width="1" height="28" stroke="none"/>
      <rect x="303" y="549" clip-path="url(#clipPath2)" fill="yellow" width="98" height="1" stroke="none"/>
      <rect x="303" y="576" clip-path="url(#clipPath2)" fill="rgb(178,142,0)" width="99" height="1" stroke="none"/>
      <rect x="401" y="549" clip-path="url(#clipPath2)" fill="rgb(178,142,0)" width="1" height="27" stroke="none"/>
    </g>
    <g font-size="13px" stroke-linecap="butt" transform="matrix(1,0,0,1,-2,-48)" text-rendering="geometricPrecision" font-family="sans-serif" shape-rendering="geometricPrecision" font-weight="bold" stroke-miterlimit="1.45">
      <text x="334.6582" xml:space="preserve" y="567.0698" clip-path="url(#clipPath6)" stroke="none">Plane</text>
    </g>
    <g fill="rgb(255,204,0)" text-rendering="geometricPrecision" shape-rendering="geometricPrecision" transform="matrix(1,0,0,1,-2,-48)" stroke="rgb(255,204,0)">
      <rect x="242" width="98" height="26" y="608" clip-path="url(#clipPath2)" stroke="none"/>
      <rect x="241" y="607" clip-path="url(#clipPath2)" fill="yellow" width="1" height="28" stroke="none"/>
      <rect x="242" y="607" clip-path="url(#clipPath2)" fill="yellow" width="98" height="1" stroke="none"/>
      <rect x="242" y="634" clip-path="url(#clipPath2)" fill="rgb(178,142,0)" width="99" height="1" stroke="none"/>
      <rect x="340" y="607" clip-path="url(#clipPath2)" fill="rgb(178,142,0)" width="1" height="27" stroke="none"/>
    </g>
    <g font-size="13px" stroke-linecap="butt" transform="matrix(1,0,0,1,-2,-48)" text-rendering="geometricPrecision" font-family="sans-serif" shape-rendering="geometricPrecision" font-weight="bold" stroke-miterlimit="1.45">
      <text x="257.7637" xml:space="preserve" y="625.0698" clip-path="url(#clipPath7)" stroke="none">PlaneState</text>
    </g>
    <g fill="rgb(255,204,0)" text-rendering="geometricPrecision" shape-rendering="geometricPrecision" transform="matrix(1,0,0,1,-2,-48)" stroke="rgb(255,204,0)">
      <rect x="375" width="98" height="26" y="608" clip-path="url(#clipPath2)" stroke="none"/>
      <rect x="374" y="607" clip-path="url(#clipPath2)" fill="yellow" width="1" height="28" stroke="none"/>
      <rect x="375" y="607" clip-path="url(#clipPath2)" fill="yellow" width="98" height="1" stroke="none"/>
      <rect x="375" y="634" clip-path="url(#clipPath2)" fill="rgb(178,142,0)" width="99" height="1" stroke="none"/>
      <rect x="473" y="607" clip-path="url(#clipPath2)" fill="rgb(178,142,0)" width="1" height="27" stroke="none"/>
    </g>
    <g font-size="13px" stroke-linecap="butt" transform="matrix(1,0,0,1,-2,-48)" text-rendering="geometricPrecision" font-family="sans-serif" shape-rendering="geometricPrecision" font-weight="bold" stroke-miterlimit="1.45">
      <text x="385" xml:space="preserve" y="625.0698" clip-path="url(#clipPath8)" stroke="none">PlaneTuning</text>
    </g>
    <g fill="rgb(255,204,0)" text-rendering="geometricPrecision" shape-rendering="geometricPrecision" transform="matrix(1,0,0,1,-2,-48)" stroke="rgb(255,204,0)">
      <rect x="303" width="98" height="26" y="492" clip-path="url(#clipPath2)" stroke="none"/>
      <rect x="302" y="491" clip-path="url(#clipPath2)" fill="yellow" width="1" height="28" stroke="none"/>
      <rect x="303" y="491" clip-path="url(#clipPath2)" fill="yellow" width="98" height="1" stroke="none"/>
      <rect x="303" y="518" clip-path="url(#clipPath2)" fill="rgb(178,142,0)" width="99" height="1" stroke="none"/>
      <rect x="401" y="491" clip-path="url(#clipPath2)" fill="rgb(178,142,0)" width="1" height="27" stroke="none"/>
    </g>
    <g font-size="13px" stroke-linecap="butt" transform="matrix(1,0,0,1,-2,-48)" text-rendering="geometricPrecision" font-family="sans-serif" shape-rendering="geometricPrecision" font-weight="bold" stroke-miterlimit="1.45">
      <text x="312.6318" xml:space="preserve" y="509.0698" clip-path="url(#clipPath9)" stroke="none">Participation</text>
    </g>
    <g fill="rgb(255,204,0)" text-rendering="geometricPrecision" shape-rendering="geometricPrecision" transform="matrix(1,0,0,1,-2,-48)" stroke="rgb(255,204,0)">
      <rect x="173" width="98" height="26" y="520" clip-path="url(#clipPath2)" stroke="none"/>
      <rect x="172" y="519" clip-path="url(#clipPath2)" fill="yellow" width="1" height="28" stroke="none"/>
      <rect x="173" y="519" clip-path="url(#clipPath2)" fill="yellow" width="98" height="1" stroke="none"/>
      <rect x="173" y="546" clip-path="url(#clipPath2)" fill="rgb(178,142,0)" width="99" height="1" stroke="none"/>
      <rect x="271" y="519" clip-path="url(#clipPath2)" fill="rgb(178,142,0)" width="1" height="27" stroke="none"/>
    </g>
    <g font-size="13px" stroke-linecap="butt" transform="matrix(1,0,0,1,-2,-48)" text-rendering="geometricPrecision" font-family="sans-serif" shape-rendering="geometricPrecision" font-weight="bold" stroke-miterlimit="1.45">
      <text x="207.1941" xml:space="preserve" y="537.0698" clip-path="url(#clipPath10)" stroke="none">Prop</text>
    </g>
    <g fill="rgb(255,204,0)" text-rendering="geometricPrecision" shape-rendering="geometricPrecision" transform="matrix(1,0,0,1,-2,-48)" stroke="rgb(255,204,0)">
      <rect x="596" width="98" height="26" y="453" clip-path="url(#clipPath2)" stroke="none"/>
      <rect x="595" y="452" clip-path="url(#clipPath2)" fill="yellow" width="1" height="28" stroke="none"/>
      <rect x="596" y="452" clip-path="url(#clipPath2)" fill="yellow" width="98" height="1" stroke="none"/>
      <rect x="596" y="479" clip-path="url(#clipPath2)" fill="rgb(178,142,0)" width="99" height="1" stroke="none"/>
      <rect x="694" y="452" clip-path="url(#clipPath2)" fill="rgb(178,142,0)" width="1" height="27" stroke="none"/>
    </g>
    <g font-size="13px" stroke-linecap="butt" transform="matrix(1,0,0,1,-2,-48)" text-rendering="geometricPrecision" font-family="sans-serif" shape-rendering="geometricPrecision" font-weight="bold" stroke-miterlimit="1.45">
      <text x="632" xml:space="preserve" y="470.0698" clip-path="url(#clipPath11)" stroke="none">Map</text>
    </g>
    <g fill="rgb(255,204,0)" text-rendering="geometricPrecision" shape-rendering="geometricPrecision" transform="matrix(1,0,0,1,-2,-48)" stroke="rgb(255,204,0)">
      <rect x="433" width="98" height="26" y="507" clip-path="url(#clipPath2)" stroke="none"/>
      <rect x="432" y="506" clip-path="url(#clipPath2)" fill="yellow" width="1" height="28" stroke="none"/>
      <rect x="433" y="506" clip-path="url(#clipPath2)" fill="yellow" width="98" height="1" stroke="none"/>
      <rect x="433" y="533" clip-path="url(#clipPath2)" fill="rgb(178,142,0)" width="99" height="1" stroke="none"/>
      <rect x="531" y="506" clip-path="url(#clipPath2)" fill="rgb(178,142,0)" width="1" height="27" stroke="none"/>
    </g>
    <g font-size="13px" stroke-linecap="butt" transform="matrix(1,0,0,1,-2,-48)" text-rendering="geometricPrecision" font-family="sans-serif" shape-rendering="geometricPrecision" font-weight="bold" stroke-miterlimit="1.45">
      <text x="457.4282" xml:space="preserve" y="524.0698" clip-path="url(#clipPath12)" stroke="none">Physics</text>
    </g>
    <g fill="rgb(255,204,0)" text-rendering="geometricPrecision" shape-rendering="geometricPrecision" transform="matrix(1,0,0,1,-2,-48)" stroke="rgb(255,204,0)">
      <ellipse rx="55" ry="25" clip-path="url(#clipPath2)" cx="227" cy="395.5" stroke="none"/>
    </g>
    <g font-size="13px" stroke-linecap="butt" transform="matrix(1,0,0,1,-2,-48)" text-rendering="geometricPrecision" font-family="sans-serif" shape-rendering="geometricPrecision" stroke-miterlimit="1.45">
      <text x="195.9314" xml:space="preserve" y="400.6067" clip-path="url(#clipPath2)" stroke="none">Networked</text>
      <ellipse rx="55" fill="none" ry="25" clip-path="url(#clipPath2)" cx="227" cy="395.5"/>
    </g>
    <g fill="rgb(255,204,0)" text-rendering="geometricPrecision" shape-rendering="geometricPrecision" transform="matrix(1,0,0,1,-2,-48)" stroke="rgb(255,204,0)">
      <rect x="38" width="98" height="26" y="415" clip-path="url(#clipPath2)" stroke="none"/>
      <rect x="37" y="414" clip-path="url(#clipPath2)" fill="yellow" width="1" height="28" stroke="none"/>
      <rect x="38" y="414" clip-path="url(#clipPath2)" fill="yellow" width="98" height="1" stroke="none"/>
      <rect x="38" y="441" clip-path="url(#clipPath2)" fill="rgb(178,142,0)" width="99" height="1" stroke="none"/>
      <rect x="136" y="414" clip-path="url(#clipPath2)" fill="rgb(178,142,0)" width="1" height="27" stroke="none"/>
    </g>
    <g font-size="13px" stroke-linecap="butt" transform="matrix(1,0,0,1,-2,-48)" text-rendering="geometricPrecision" font-family="sans-serif" shape-rendering="geometricPrecision" font-weight="bold" stroke-miterlimit="1.45">
      <text x="47.9841" xml:space="preserve" y="432.0698" clip-path="url(#clipPath13)" stroke="none">ClientPacket</text>
    </g>
    <g fill="rgb(255,204,0)" text-rendering="geometricPrecision" shape-rendering="geometricPrecision" transform="matrix(1,0,0,1,-2,-48)" stroke="rgb(255,204,0)">
      <rect x="18" width="98" height="26" y="350" clip-path="url(#clipPath2)" stroke="none"/>
      <rect x="17" y="349" clip-path="url(#clipPath2)" fill="yellow" width="1" height="28" stroke="none"/>
      <rect x="18" y="349" clip-path="url(#clipPath2)" fill="yellow" width="98" height="1" stroke="none"/>
      <rect x="18" y="376" clip-path="url(#clipPath2)" fill="rgb(178,142,0)" width="99" height="1" stroke="none"/>
      <rect x="116" y="349" clip-path="url(#clipPath2)" fill="rgb(178,142,0)" width="1" height="27" stroke="none"/>
    </g>
    <g font-size="13px" stroke-linecap="butt" transform="matrix(1,0,0,1,-2,-48)" text-rendering="geometricPrecision" font-family="sans-serif" shape-rendering="geometricPrecision" font-weight="bold" stroke-miterlimit="1.45">
      <text x="25.8005" xml:space="preserve" y="367.0698" clip-path="url(#clipPath14)" stroke="none">ServerPacket</text>
    </g>
    <g fill="rgb(255,204,0)" text-rendering="geometricPrecision" shape-rendering="geometricPrecision" transform="matrix(1,0,0,1,-2,-48)" stroke="rgb(255,204,0)">
      <ellipse rx="55" ry="25" clip-path="url(#clipPath2)" cx="241" cy="215.5" stroke="none"/>
    </g>
    <g font-size="13px" stroke-linecap="butt" transform="matrix(1,0,0,1,-2,-48)" text-rendering="geometricPrecision" font-family="sans-serif" shape-rendering="geometricPrecision" stroke-miterlimit="1.45">
      <text x="203.4155" xml:space="preserve" y="220.6067" clip-path="url(#clipPath2)" stroke="none">ArenaLogger</text>
      <ellipse rx="55" fill="none" ry="25" clip-path="url(#clipPath2)" cx="241" cy="215.5"/>
    </g>
    <g fill="rgb(255,204,0)" text-rendering="geometricPrecision" shape-rendering="geometricPrecision" transform="matrix(1,0,0,1,-2,-48)" stroke="rgb(255,204,0)">
      <rect x="192" width="98" height="26" y="128" clip-path="url(#clipPath2)" stroke="none"/>
      <rect x="191" y="127" clip-path="url(#clipPath2)" fill="yellow" width="1" height="28" stroke="none"/>
      <rect x="192" y="127" clip-path="url(#clipPath2)" fill="yellow" width="98" height="1" stroke="none"/>
      <rect x="192" y="154" clip-path="url(#clipPath2)" fill="rgb(178,142,0)" width="99" height="1" stroke="none"/>
      <rect x="290" y="127" clip-path="url(#clipPath2)" fill="rgb(178,142,0)" width="1" height="27" stroke="none"/>
    </g>
    <g font-size="13px" stroke-linecap="butt" transform="matrix(1,0,0,1,-2,-48)" text-rendering="geometricPrecision" font-family="sans-serif" shape-rendering="geometricPrecision" font-weight="bold" stroke-miterlimit="1.45">
      <text x="204.8755" xml:space="preserve" y="145.0698" clip-path="url(#clipPath15)" stroke="none">ArenaEvent</text>
    </g>
    <g fill="rgb(255,204,0)" text-rendering="geometricPrecision" shape-rendering="geometricPrecision" transform="matrix(1,0,0,1,-2,-48)" stroke="rgb(255,204,0)">
      <rect x="257" width="98" height="26" y="70" clip-path="url(#clipPath2)" stroke="none"/>
      <rect x="256" y="69" clip-path="url(#clipPath2)" fill="yellow" width="1" height="28" stroke="none"/>
      <rect x="257" y="69" clip-path="url(#clipPath2)" fill="yellow" width="98" height="1" stroke="none"/>
      <rect x="257" y="96" clip-path="url(#clipPath2)" fill="rgb(178,142,0)" width="99" height="1" stroke="none"/>
      <rect x="355" y="69" clip-path="url(#clipPath2)" fill="rgb(178,142,0)" width="1" height="27" stroke="none"/>
    </g>
    <g font-size="13px" stroke-linecap="butt" transform="matrix(1,0,0,1,-2,-48)" text-rendering="geometricPrecision" font-family="sans-serif" shape-rendering="geometricPrecision" font-weight="bold" stroke-miterlimit="1.45">
      <text x="270.2437" xml:space="preserve" y="87.0698" clip-path="url(#clipPath16)" stroke="none">ClientEvent</text>
    </g>
    <g fill="rgb(255,204,0)" text-rendering="geometricPrecision" shape-rendering="geometricPrecision" transform="matrix(1,0,0,1,-2,-48)" stroke="rgb(255,204,0)">
      <rect x="127" width="98" height="26" y="70" clip-path="url(#clipPath2)" stroke="none"/>
      <rect x="126" y="69" clip-path="url(#clipPath2)" fill="yellow" width="1" height="28" stroke="none"/>
      <rect x="127" y="69" clip-path="url(#clipPath2)" fill="yellow" width="98" height="1" stroke="none"/>
      <rect x="127" y="96" clip-path="url(#clipPath2)" fill="rgb(178,142,0)" width="99" height="1" stroke="none"/>
      <rect x="225" y="69" clip-path="url(#clipPath2)" fill="rgb(178,142,0)" width="1" height="27" stroke="none"/>
    </g>
    <g font-size="13px" stroke-linecap="butt" transform="matrix(1,0,0,1,-2,-48)" text-rendering="geometricPrecision" font-family="sans-serif" shape-rendering="geometricPrecision" font-weight="bold" stroke-miterlimit="1.45">
      <text x="138.0601" xml:space="preserve" y="87.0698" clip-path="url(#clipPath17)" stroke="none">ServerEvent</text>
    </g>
    <g fill="rgb(255,204,0)" text-rendering="geometricPrecision" shape-rendering="geometricPrecision" transform="matrix(1,0,0,1,-2,-48)" stroke="rgb(255,204,0)">
      <rect x="393" width="98" height="26" y="180" clip-path="url(#clipPath2)" stroke="none"/>
      <rect x="392" y="179" clip-path="url(#clipPath2)" fill="yellow" width="1" height="28" stroke="none"/>
      <rect x="393" y="179" clip-path="url(#clipPath2)" fill="yellow" width="98" height="1" stroke="none"/>
      <rect x="393" y="206" clip-path="url(#clipPath2)" fill="rgb(178,142,0)" width="99" height="1" stroke="none"/>
      <rect x="491" y="179" clip-path="url(#clipPath2)" fill="rgb(178,142,0)" width="1" height="27" stroke="none"/>
    </g>
    <g font-size="13px" stroke-linecap="butt" transform="matrix(1,0,0,1,-2,-48)" text-rendering="geometricPrecision" font-family="sans-serif" shape-rendering="geometricPrecision" font-weight="bold" stroke-miterlimit="1.45">
      <text x="396.981" xml:space="preserve" y="197.3198" clip-path="url(#clipPath18)" stroke="none">RenderSystem</text>
    </g>
    <g fill="rgb(255,204,0)" text-rendering="geometricPrecision" shape-rendering="geometricPrecision" transform="matrix(1,0,0,1,-2,-48)" stroke="rgb(255,204,0)">
      <rect x="523" width="98" height="26" y="140" clip-path="url(#clipPath2)" stroke="none"/>
      <rect x="522" y="139" clip-path="url(#clipPath2)" fill="yellow" width="1" height="28" stroke="none"/>
      <rect x="523" y="139" clip-path="url(#clipPath2)" fill="yellow" width="98" height="1" stroke="none"/>
      <rect x="523" y="166" clip-path="url(#clipPath2)" fill="rgb(178,142,0)" width="99" height="1" stroke="none"/>
      <rect x="621" y="139" clip-path="url(#clipPath2)" fill="rgb(178,142,0)" width="1" height="27" stroke="none"/>
    </g>
    <g font-size="13px" stroke-linecap="butt" transform="matrix(1,0,0,1,-2,-48)" text-rendering="geometricPrecision" font-family="sans-serif" shape-rendering="geometricPrecision" font-weight="bold" stroke-miterlimit="1.45">
      <text x="552.2605" xml:space="preserve" y="157.6948" clip-path="url(#clipPath19)" stroke="none">Server</text>
    </g>
    <g fill="rgb(255,204,0)" text-rendering="geometricPrecision" shape-rendering="geometricPrecision" transform="matrix(1,0,0,1,-2,-48)" stroke="rgb(255,204,0)">
      <rect x="393" width="98" height="26" y="101" clip-path="url(#clipPath2)" stroke="none"/>
      <rect x="392" y="100" clip-path="url(#clipPath2)" fill="yellow" width="1" height="28" stroke="none"/>
      <rect x="393" y="100" clip-path="url(#clipPath2)" fill="yellow" width="98" height="1" stroke="none"/>
      <rect x="393" y="127" clip-path="url(#clipPath2)" fill="rgb(178,142,0)" width="99" height="1" stroke="none"/>
      <rect x="491" y="100" clip-path="url(#clipPath2)" fill="rgb(178,142,0)" width="1" height="27" stroke="none"/>
    </g>
    <g font-size="13px" stroke-linecap="butt" transform="matrix(1,0,0,1,-2,-48)" text-rendering="geometricPrecision" font-family="sans-serif" shape-rendering="geometricPrecision" font-weight="bold" stroke-miterlimit="1.45">
      <text x="410.3682" xml:space="preserve" y="118.0698" clip-path="url(#clipPath20)" stroke="none">DebugInfo</text>
    </g>
    <g fill="rgb(255,204,0)" text-rendering="geometricPrecision" shape-rendering="geometricPrecision" transform="matrix(1,0,0,1,-2,-48)" stroke="rgb(255,204,0)">
      <rect x="482" width="98" height="26" y="571" clip-path="url(#clipPath2)" stroke="none"/>
      <rect x="481" y="570" clip-path="url(#clipPath2)" fill="yellow" width="1" height="28" stroke="none"/>
      <rect x="482" y="570" clip-path="url(#clipPath2)" fill="yellow" width="98" height="1" stroke="none"/>
      <rect x="482" y="597" clip-path="url(#clipPath2)" fill="rgb(178,142,0)" width="99" height="1" stroke="none"/>
      <rect x="580" y="570" clip-path="url(#clipPath2)" fill="rgb(178,142,0)" width="1" height="27" stroke="none"/>
    </g>
    <g font-size="13px" stroke-linecap="butt" transform="matrix(1,0,0,1,-2,-48)" text-rendering="geometricPrecision" font-family="sans-serif" shape-rendering="geometricPrecision" font-weight="bold" stroke-miterlimit="1.45">
      <text x="503.6941" xml:space="preserve" y="588.5698" clip-path="url(#clipPath21)" stroke="none">BodyTag</text>
    </g>
    <g fill="rgb(255,204,0)" text-rendering="geometricPrecision" shape-rendering="geometricPrecision" transform="matrix(1,0,0,1,-2,-48)" stroke="rgb(255,204,0)">
      <ellipse rx="55" ry="25" clip-path="url(#clipPath2)" cx="678.5" cy="545" stroke="none"/>
    </g>
    <g font-size="13px" stroke-linecap="butt" transform="matrix(1,0,0,1,-2,-48)" text-rendering="geometricPrecision" font-family="sans-serif" shape-rendering="geometricPrecision" stroke-miterlimit="1.45">
      <text x="632.981" xml:space="preserve" y="550.1067" clip-path="url(#clipPath2)" stroke="none">PhysicsListener</text>
      <ellipse rx="55" fill="none" ry="25" clip-path="url(#clipPath2)" cx="678.5" cy="545"/>
    </g>
    <g fill="rgb(255,204,0)" text-rendering="geometricPrecision" shape-rendering="geometricPrecision" transform="matrix(1,0,0,1,-2,-48)" stroke="rgb(255,204,0)">
      <ellipse rx="71.5" ry="25" clip-path="url(#clipPath2)" cx="572.5" cy="293.3438" stroke="none"/>
    </g>
    <g font-size="13px" stroke-linecap="butt" transform="matrix(1,0,0,1,-2,-48)" text-rendering="geometricPrecision" font-family="sans-serif" shape-rendering="geometricPrecision" stroke-miterlimit="1.45">
      <text x="540.3491" xml:space="preserve" y="298.4504" clip-path="url(#clipPath2)" stroke="none">Subsystem</text>
      <ellipse rx="71.5" fill="none" ry="25" clip-path="url(#clipPath2)" cx="572.5" cy="293.3438"/>
    </g>
    <g fill="rgb(255,204,0)" text-rendering="geometricPrecision" shape-rendering="geometricPrecision" transform="matrix(1,0,0,1,-2,-48)" stroke="rgb(255,204,0)">
      <rect x="539" width="98" height="26" y="394" clip-path="url(#clipPath2)" stroke="none"/>
      <rect x="538" y="393" clip-path="url(#clipPath2)" fill="yellow" width="1" height="28" stroke="none"/>
      <rect x="539" y="393" clip-path="url(#clipPath2)" fill="yellow" width="98" height="1" stroke="none"/>
      <rect x="539" y="420" clip-path="url(#clipPath2)" fill="rgb(178,142,0)" width="99" height="1" stroke="none"/>
      <rect x="637" y="393" clip-path="url(#clipPath2)" fill="rgb(178,142,0)" width="1" height="27" stroke="none"/>
    </g>
    <g font-size="13px" stroke-linecap="butt" transform="matrix(1,0,0,1,-2,-48)" text-rendering="geometricPrecision" font-family="sans-serif" shape-rendering="geometricPrecision" font-weight="bold" stroke-miterlimit="1.45">
      <text x="552.3787" xml:space="preserve" y="411.2417" clip-path="url(#clipPath22)" stroke="none">Scoreboard</text>
      <path fill="none" d="M309.0273 287.5724 L335.9294 289.2246" clip-path="url(#clipPath2)"/>
    </g>
    <g text-rendering="geometricPrecision" stroke-miterlimit="1.45" stroke-dasharray="6,2" shape-rendering="geometricPrecision" transform="matrix(1,0,0,1,-2,-48)" stroke-linecap="butt">
      <path fill="none" d="M441.9831 376.3088 L472.2576 433.5724" clip-path="url(#clipPath2)"/>
      <path d="M474.1272 437.1086 L473.8228 423.6957 L474.1272 437.1086 L463.2142 429.3044 Z" clip-path="url(#clipPath2)" stroke="none"/>
      <path fill="none" stroke-miterlimit="10" stroke-dasharray="none" d="M474.1272 437.1086 L473.8228 423.6957 L474.1272 437.1086 L463.2142 429.3044 Z" clip-path="url(#clipPath2)" stroke-linecap="square"/>
      <path fill="none" d="M337.2563 577.0186 L309.3271 603.5743" clip-path="url(#clipPath2)"/>
      <path d="M306.4283 606.3305 L319.2591 602.41 L306.4283 606.3305 L310.9903 593.7136 Z" clip-path="url(#clipPath2)" stroke="none"/>
      <path fill="none" stroke-miterlimit="10" stroke-dasharray="none" d="M306.4283 606.3305 L319.2591 602.41 L306.4283 606.3305 L310.9903 593.7136 Z" clip-path="url(#clipPath2)" stroke-linecap="square"/>
      <path fill="none" d="M369.4023 577.0186 L402.7512 603.8829" clip-path="url(#clipPath2)"/>
      <path d="M405.8662 606.3923 L400.2852 594.1918 L405.8662 606.3923 L392.7572 603.5368 Z" clip-path="url(#clipPath2)" stroke="none"/>
      <path fill="none" stroke-miterlimit="10" stroke-dasharray="none" d="M405.8662 606.3923 L400.2852 594.1918 L405.8662 606.3923 L392.7572 603.5368 Z" clip-path="url(#clipPath2)" stroke-linecap="square"/>
      <path fill="none" d="M447.6909 465.9875 L390.9489 489.1208" clip-path="url(#clipPath2)"/>
      <path d="M387.2448 490.631 L400.622 491.6566 L387.2448 490.631 L396.0917 480.5446 Z" clip-path="url(#clipPath2)" stroke="none"/>
      <path fill="none" stroke-miterlimit="10" stroke-dasharray="none" d="M387.2448 490.631 L400.622 491.6566 L387.2448 490.631 L396.0917 480.5446 Z" clip-path="url(#clipPath2)" stroke-linecap="square"/>
      <path fill="none" d="M352 519.0186 L352 544.041" clip-path="url(#clipPath2)"/>
      <path d="M352 548.041 L358 536.041 L352 548.041 L346 536.041 Z" clip-path="url(#clipPath2)" stroke="none"/>
      <path fill="none" stroke-miterlimit="10" stroke-dasharray="none" d="M352 548.041 L358 536.041 L352 548.041 L346 536.041 Z" clip-path="url(#clipPath2)" stroke-linecap="square"/>
      <path fill="none" d="M302.0122 515.7666 L276.8565 521.1848" clip-path="url(#clipPath2)"/>
      <path d="M272.9461 522.027 L285.9405 525.3658 L272.9461 522.027 L283.4138 513.6348 Z" clip-path="url(#clipPath2)" stroke="none"/>
      <path fill="none" stroke-miterlimit="10" stroke-dasharray="none" d="M272.9461 522.027 L285.9405 525.3658 L272.9461 522.027 L283.4138 513.6348 Z" clip-path="url(#clipPath2)" stroke-linecap="square"/>
      <path fill="none" d="M532.0222 456.2964 L590.0114 461.277" clip-path="url(#clipPath2)"/>
      <path d="M593.9966 461.6194 L582.5541 454.6144 L593.9966 461.6194 L581.5272 466.5704 Z" clip-path="url(#clipPath2)" stroke="none"/>
      <path fill="none" stroke-miterlimit="10" stroke-dasharray="none" d="M593.9966 461.6194 L582.5541 454.6144 L593.9966 461.6194 L581.5272 466.5704 Z" clip-path="url(#clipPath2)" stroke-linecap="square"/>
      <path fill="none" d="M482 465.9785 L482 500.9934" clip-path="url(#clipPath2)"/>
      <path d="M482 504.9934 L488 492.9934 L482 504.9934 L476 492.9934 Z" clip-path="url(#clipPath2)" stroke="none"/>
      <path fill="none" stroke-miterlimit="10" stroke-dasharray="none" d="M482 504.9934 L488 492.9934 L482 504.9934 L476 492.9934 Z" clip-path="url(#clipPath2)" stroke-linecap="square"/>
      <path fill="none" d="M384.6006 370.3293 L293.7023 384.8468" clip-path="url(#clipPath2)"/>
      <path fill="white" d="M278.89 387.2125 L295.6361 390.614 L293.7435 378.7642 Z" clip-path="url(#clipPath2)" stroke="none"/>
      <path fill="none" stroke-dasharray="none" d="M278.89 387.2125 L295.6361 390.614 L293.7435 378.7642 Z" clip-path="url(#clipPath2)"/>
      <path fill="none" d="M254.9609 298.5105 L238.3012 356.2989" clip-path="url(#clipPath2)"/>
      <path fill="white" d="M234.1461 370.7119 L244.3434 357.0001 L232.813 353.676 Z" clip-path="url(#clipPath2)" stroke="none"/>
      <path fill="none" stroke-dasharray="none" d="M234.1461 370.7119 L244.3434 357.0001 L232.813 353.676 Z" clip-path="url(#clipPath2)"/>
      <path fill="none" d="M336.0393 491.0184 L263.6147 427.5745" clip-path="url(#clipPath2)"/>
      <path fill="white" d="M252.3316 417.6905 L260.4133 432.7466 L268.3205 423.7202 Z" clip-path="url(#clipPath2)" stroke="none"/>
      <path fill="none" stroke-dasharray="none" d="M252.3316 417.6905 L260.4133 432.7466 L268.3205 423.7202 Z" clip-path="url(#clipPath2)"/>
      <path fill="none" d="M137.0049 416.3917 L173.1477 408.0014" clip-path="url(#clipPath2)"/>
      <path d="M177.0441 407.0969 L163.9982 403.9659 L177.0441 407.0969 L166.7118 415.6551 Z" clip-path="url(#clipPath2)" stroke="none"/>
      <path fill="none" stroke-miterlimit="10" stroke-dasharray="none" d="M177.0441 407.0969 L163.9982 403.9659 L177.0441 407.0969 L166.7118 415.6551 Z" clip-path="url(#clipPath2)" stroke-linecap="square"/>
      <path fill="none" d="M117.0391 373.1642 L171.8858 384.3049" clip-path="url(#clipPath2)"/>
      <path d="M175.8058 385.1012 L165.2403 376.8325 L175.8058 385.1012 L162.8516 388.5924 Z" clip-path="url(#clipPath2)" stroke="none"/>
      <path fill="none" stroke-miterlimit="10" stroke-dasharray="none" d="M175.8058 385.1012 L165.2403 376.8325 L175.8058 385.1012 L162.8516 388.5924 Z" clip-path="url(#clipPath2)" stroke-linecap="square"/>
      <path fill="none" stroke-dasharray="none" d="M255.3525 270.5181 L247.4764 240.3261" clip-path="url(#clipPath2)"/>
      <path fill="none" d="M241 190.5 L241 159.9702" clip-path="url(#clipPath2)"/>
      <path d="M241 155.9702 L235 167.9702 L241 155.9702 L247 167.9702 Z" clip-path="url(#clipPath2)" stroke="none"/>
      <path fill="none" stroke-miterlimit="10" stroke-dasharray="none" d="M241 155.9702 L235 167.9702 L241 155.9702 L247 167.9702 Z" clip-path="url(#clipPath2)" stroke-linecap="square"/>
      <path fill="none" d="M290.2896 97.0186 L260.3984 123.6906" clip-path="url(#clipPath2)"/>
      <path d="M257.4139 126.3538 L270.3623 122.8412 L257.4139 126.3538 L262.3728 113.8875 Z" clip-path="url(#clipPath2)" stroke="none"/>
      <path fill="none" stroke-miterlimit="10" stroke-dasharray="none" d="M257.4139 126.3538 L270.3623 122.8412 L257.4139 126.3538 L262.3728 113.8875 Z" clip-path="url(#clipPath2)" stroke-linecap="square"/>
      <path fill="none" d="M191.7104 97.0186 L221.6016 123.6906" clip-path="url(#clipPath2)"/>
      <path d="M224.5861 126.3538 L219.6272 113.8875 L224.5861 126.3538 L211.6377 122.8412 Z" clip-path="url(#clipPath2)" stroke="none"/>
      <path fill="none" stroke-miterlimit="10" stroke-dasharray="none" d="M224.5861 126.3538 L219.6272 113.8875 L224.5861 126.3538 L211.6377 122.8412 Z" clip-path="url(#clipPath2)" stroke-linecap="square"/>
      <path fill="none" d="M492.7556 534.0149 L517.7293 566.5564" clip-path="url(#clipPath2)"/>
      <path d="M520.1646 569.7296 L517.6187 556.557 L520.1646 569.7296 L508.0989 563.8628 Z" clip-path="url(#clipPath2)" stroke="none"/>
      <path fill="none" stroke-miterlimit="10" stroke-dasharray="none" d="M520.1646 569.7296 L517.6187 556.557 L520.1646 569.7296 L508.0989 563.8628 Z" clip-path="url(#clipPath2)" stroke-linecap="square"/>
      <path fill="none" d="M532.0365 526.366 L620.5756 537.6305" clip-path="url(#clipPath2)"/>
      <path d="M624.5436 538.1353 L613.3968 530.6688 L624.5436 538.1353 L611.8823 542.5729 Z" clip-path="url(#clipPath2)" stroke="none"/>
      <path fill="none" stroke-miterlimit="10" stroke-dasharray="none" d="M624.5436 538.1353 L613.3968 530.6688 L624.5436 538.1353 L611.8823 542.5729 Z" clip-path="url(#clipPath2)" stroke-linecap="square"/>
      <path fill="none" d="M511.5757 465.9977 L626.8441 520.5522" clip-path="url(#clipPath2)"/>
      <path fill="white" d="M640.4023 526.969 L628.507 514.7011 L623.3735 525.5477 Z" clip-path="url(#clipPath2)" stroke="none"/>
      <path fill="none" stroke-dasharray="none" d="M640.4023 526.969 L628.507 514.7011 L623.3735 525.5477 Z" clip-path="url(#clipPath2)"/>
      <path fill="none" d="M631.1542 557.7222 L586.3261 569.7678" clip-path="url(#clipPath2)"/>
      <path d="M582.4631 570.8058 L595.609 573.4863 L582.4631 570.8058 L592.4951 561.8974 Z" clip-path="url(#clipPath2)" stroke="none"/>
      <path fill="none" stroke-miterlimit="10" stroke-dasharray="none" d="M582.4631 570.8058 L595.609 573.4863 L582.4631 570.8058 L592.4951 561.8974 Z" clip-path="url(#clipPath2)" stroke-linecap="square"/>
      <path fill="none" d="M460.686 207.2524 L531.0508 261.4299" clip-path="url(#clipPath2)"/>
      <path fill="white" d="M542.936 270.581 L533.9189 256.0658 L526.5981 265.5739 Z" clip-path="url(#clipPath2)" stroke="none"/>
      <path fill="none" stroke-dasharray="none" d="M542.936 270.581 L533.9189 256.0658 L526.5981 265.5739 Z" clip-path="url(#clipPath2)"/>
      <path fill="none" d="M492.4878 125.9202 L507.5 129.5 L517.5 200.5 L550.3528 255.9579" clip-path="url(#clipPath2)"/>
      <path fill="white" d="M557.998 268.8634 L555.0054 252.0395 L544.681 258.1556 Z" clip-path="url(#clipPath2)" stroke="none"/>
      <path fill="none" stroke-dasharray="none" d="M557.998 268.8634 L555.0054 252.0395 L544.681 258.1556 Z" clip-path="url(#clipPath2)"/>
      <path fill="none" d="M572.5 167.6446 L572.5 253.3438" clip-path="url(#clipPath2)"/>
      <path fill="white" d="M572.5 268.3438 L578.5 252.3438 L566.5 252.3438 Z" clip-path="url(#clipPath2)" stroke="none"/>
      <path fill="none" stroke-dasharray="none" d="M572.5 268.3438 L578.5 252.3438 L566.5 252.3438 Z" clip-path="url(#clipPath2)"/>
      <path fill="none" d="M462.5773 348.345 L518.1304 320.5482" clip-path="url(#clipPath2)"/>
      <path fill="white" d="M531.5449 313.8362 L514.5513 315.6299 L519.921 326.3615 Z" clip-path="url(#clipPath2)" stroke="none"/>
      <path fill="none" stroke-dasharray="none" d="M531.5449 313.8362 L514.5513 315.6299 L519.921 326.3615 Z" clip-path="url(#clipPath2)"/>
      <path fill="none" d="M489.9762 438.0169 L551.0829 330.8902" clip-path="url(#clipPath2)"/>
      <path fill="white" d="M558.5151 317.8609 L545.3757 328.786 L555.7992 334.7317 Z" clip-path="url(#clipPath2)" stroke="none"/>
      <path fill="none" stroke-dasharray="none" d="M558.5151 317.8609 L545.3757 328.786 L555.7992 334.7317 Z" clip-path="url(#clipPath2)"/>
      <path fill="none" d="M501 293.3438 L486 293.3438" clip-path="url(#clipPath2)"/>
      <path fill="white" d="M471 293.3438 L487 299.3438 L487 287.3438 Z" clip-path="url(#clipPath2)" stroke="none"/>
      <path fill="none" stroke-dasharray="none" d="M471 293.3438 L487 299.3438 L487 287.3438 Z" clip-path="url(#clipPath2)"/>
      <path fill="none" d="M586.5352 393.1935 L578.0978 333.1676" clip-path="url(#clipPath2)"/>
      <path fill="white" d="M576.0098 318.3136 L572.2954 334.993 L584.1786 333.3227 Z" clip-path="url(#clipPath2)" stroke="none"/>
      <path fill="none" stroke-dasharray="none" d="M576.0098 318.3136 L572.2954 334.993 L584.1786 333.3227 Z" clip-path="url(#clipPath2)"/>
      <path fill="none" d="M538.5025 405.5576 L296.8539 397.7554" clip-path="url(#clipPath2)"/>
      <path fill="white" d="M281.8618 397.2713 L297.6598 403.7845 L298.0471 391.7908 Z" clip-path="url(#clipPath2)" stroke="none"/>
      <path fill="none" stroke-dasharray="none" d="M281.8618 397.2713 L297.6598 403.7845 L298.0471 391.7908 Z" clip-path="url(#clipPath2)"/>
    </g>
  </g>
</svg>
