<?xml version="1.0" encoding="UTF-8"?><svg xmlns="http://www.w3.org/2000/svg" xmlns:xlink="http://www.w3.org/1999/xlink" fill-opacity="1" color-rendering="auto" color-interpolation="auto" text-rendering="auto" stroke="black" stroke-linecap="square" width="777" stroke-miterlimit="10" shape-rendering="auto" stroke-opacity="1" fill="black" stroke-dasharray="none" font-weight="normal" stroke-width="1" height="624" font-family="'Dialog'" font-style="normal" stroke-linejoin="miter" font-size="12px" stroke-dashoffset="0" image-rendering="auto">
  <!--Generated by ySVG 2.5-->
  <defs id="genericDefs"/>
  <g>
    <defs id="defs1">
      <linearGradient x1="-13" gradientUnits="userSpaceOnUse" x2="154" y1="311.8359" y2="451.5078" id="linearGradient1" spreadMethod="reflect">
        <stop stop-opacity="1" stop-color="rgb(232,238,247)" offset="0%"/>
        <stop stop-opacity="1" stop-color="rgb(183,201,227)" offset="100%"/>
      </linearGradient>
      <linearGradient x1="369.5" gradientUnits="userSpaceOnUse" x2="594.5" y1="63.6875" y2="232.6875" id="linearGradient2" spreadMethod="reflect">
        <stop stop-opacity="1" stop-color="rgb(232,238,247)" offset="0%"/>
        <stop stop-opacity="1" stop-color="rgb(183,201,227)" offset="100%"/>
      </linearGradient>
      <clipPath clipPathUnits="userSpaceOnUse" id="clipPath1">
        <path d="M0 0 L777 0 L777 624 L0 624 L0 0 Z"/>
      </clipPath>
      <clipPath clipPathUnits="userSpaceOnUse" id="clipPath2">
        <path d="M-28 48 L749 48 L749 672 L-28 672 L-28 48 Z"/>
      </clipPath>
      <clipPath clipPathUnits="userSpaceOnUse" id="clipPath3">
        <path d="M197 302 L197 330 L297 330 L297 302 Z"/>
      </clipPath>
      <clipPath clipPathUnits="userSpaceOnUse" id="clipPath4">
        <path d="M432 438 L432 466 L532 466 L532 438 Z"/>
      </clipPath>
      <clipPath clipPathUnits="userSpaceOnUse" id="clipPath5">
        <path d="M360 364 L360 392 L460 392 L460 364 Z"/>
      </clipPath>
      <clipPath clipPathUnits="userSpaceOnUse" id="clipPath6">
        <path d="M302 549 L302 577 L402 577 L402 549 Z"/>
      </clipPath>
      <clipPath clipPathUnits="userSpaceOnUse" id="clipPath7">
        <path d="M235 628 L235 656 L335 656 L335 628 Z"/>
      </clipPath>
      <clipPath clipPathUnits="userSpaceOnUse" id="clipPath8">
        <path d="M374 607 L374 635 L474 635 L474 607 Z"/>
      </clipPath>
      <clipPath clipPathUnits="userSpaceOnUse" id="clipPath9">
        <path d="M302 491 L302 519 L402 519 L402 491 Z"/>
      </clipPath>
      <clipPath clipPathUnits="userSpaceOnUse" id="clipPath10">
        <path d="M161 506 L161 534 L261 534 L261 506 Z"/>
      </clipPath>
      <clipPath clipPathUnits="userSpaceOnUse" id="clipPath11">
        <path d="M595 452 L595 480 L695 480 L695 452 Z"/>
      </clipPath>
      <clipPath clipPathUnits="userSpaceOnUse" id="clipPath12">
        <path d="M432 506 L432 534 L532 534 L532 506 Z"/>
      </clipPath>
      <clipPath clipPathUnits="userSpaceOnUse" id="clipPath13">
        <path d="M15 401 L15 429 L115 429 L115 401 Z"/>
      </clipPath>
      <clipPath clipPathUnits="userSpaceOnUse" id="clipPath14">
        <path d="M25 335 L25 363 L125 363 L125 335 Z"/>
      </clipPath>
      <clipPath clipPathUnits="userSpaceOnUse" id="clipPath15">
        <path d="M174 149 L174 177 L274 177 L274 149 Z"/>
      </clipPath>
      <clipPath clipPathUnits="userSpaceOnUse" id="clipPath16">
        <path d="M239 91 L239 119 L339 119 L339 91 Z"/>
      </clipPath>
      <clipPath clipPathUnits="userSpaceOnUse" id="clipPath17">
        <path d="M109 91 L109 119 L209 119 L209 91 Z"/>
      </clipPath>
      <clipPath clipPathUnits="userSpaceOnUse" id="clipPath18">
        <path d="M392 179 L392 207 L492 207 L492 179 Z"/>
      </clipPath>
      <clipPath clipPathUnits="userSpaceOnUse" id="clipPath19">
        <path d="M522 139 L522 167 L622 167 L622 139 Z"/>
      </clipPath>
      <clipPath clipPathUnits="userSpaceOnUse" id="clipPath20">
        <path d="M392 100 L392 128 L492 128 L492 100 Z"/>
      </clipPath>
      <clipPath clipPathUnits="userSpaceOnUse" id="clipPath21">
        <path d="M481 570 L481 598 L581 598 L581 570 Z"/>
      </clipPath>
      <clipPath clipPathUnits="userSpaceOnUse" id="clipPath22">
        <path d="M538 393 L538 421 L638 421 L638 393 Z"/>
      </clipPath>
      <clipPath clipPathUnits="userSpaceOnUse" id="clipPath23">
        <path d="M108 570 L108 598 L242 598 L242 570 Z"/>
      </clipPath>
      <clipPath clipPathUnits="userSpaceOnUse" id="clipPath24">
        <path d="M37 622 L37 650 L180 650 L180 622 Z"/>
      </clipPath>
    </defs>
    <g fill="white" text-rendering="geometricPrecision" shape-rendering="geometricPrecision" transform="translate(28,-48)" stroke="white">
      <rect x="-28" width="777" height="624" y="48" clip-path="url(#clipPath2)" stroke="none"/>
    </g>
    <g fill="url(#linearGradient1)" text-rendering="geometricPrecision" shape-rendering="geometricPrecision" transform="matrix(1,0,0,1,28,-48)" stroke="url(#linearGradient1)">
      <path d="M7.875 385.862 C-13 346.7539 7.875 311.8359 42.11 336.9769 C42.11 311.8359 98.89 311.8359 98.89 336.9769 C133.125 311.8359 154 346.7539 133.125 377.4817 C154 416.5898 133.125 451.5078 107.24 426.3669 C98.89 451.5078 42.11 451.5078 50.46 426.3669 C7.875 451.5078 -13 416.5898 7.875 385.862 Z" stroke="none" clip-path="url(#clipPath2)"/>
    </g>
    <g text-rendering="geometricPrecision" stroke-miterlimit="1.45" shape-rendering="geometricPrecision" transform="matrix(1,0,0,1,28,-48)" stroke-linecap="butt">
      <path fill="none" d="M7.875 385.862 C-13 346.7539 7.875 311.8359 42.11 336.9769 C42.11 311.8359 98.89 311.8359 98.89 336.9769 C133.125 311.8359 154 346.7539 133.125 377.4817 C154 416.5898 133.125 451.5078 107.24 426.3669 C98.89 451.5078 42.11 451.5078 50.46 426.3669 C7.875 451.5078 -13 416.5898 7.875 385.862 Z" clip-path="url(#clipPath2)"/>
      <text x="48.4893" xml:space="preserve" y="386.3857" clip-path="url(#clipPath2)" font-family="sans-serif" stroke="none">Protocol</text>
    </g>
    <g fill="url(#linearGradient2)" text-rendering="geometricPrecision" shape-rendering="geometricPrecision" transform="matrix(1,0,0,1,28,-48)" stroke="url(#linearGradient2)">
      <path d="M397.625 153.2575 C369.5 105.9375 397.625 63.6875 443.75 94.1075 C443.75 63.6875 520.25 63.6875 520.25 94.1075 C566.375 63.6875 594.5 105.9375 566.375 143.1175 C594.5 190.4375 566.375 232.6875 531.5 202.2675 C520.25 232.6875 443.75 232.6875 455 202.2675 C397.625 232.6875 369.5 190.4375 397.625 153.2575 Z" stroke="none" clip-path="url(#clipPath2)"/>
    </g>
    <g text-rendering="geometricPrecision" stroke-miterlimit="1.45" shape-rendering="geometricPrecision" transform="matrix(1,0,0,1,28,-48)" stroke-linecap="butt">
      <path fill="none" d="M397.625 153.2575 C369.5 105.9375 397.625 63.6875 443.75 94.1075 C443.75 63.6875 520.25 63.6875 520.25 94.1075 C566.375 63.6875 594.5 105.9375 566.375 143.1175 C594.5 190.4375 566.375 232.6875 531.5 202.2675 C520.25 232.6875 443.75 232.6875 455 202.2675 C397.625 232.6875 369.5 190.4375 397.625 153.2575 Z" clip-path="url(#clipPath2)"/>
      <text x="459.9893" xml:space="preserve" y="152.9014" clip-path="url(#clipPath2)" font-family="sans-serif" stroke="none">External</text>
    </g>
    <g fill="rgb(255,204,0)" text-rendering="geometricPrecision" shape-rendering="geometricPrecision" transform="matrix(1,0,0,1,28,-48)" stroke="rgb(255,204,0)">
      <ellipse rx="68" ry="25" clip-path="url(#clipPath2)" cx="403" cy="293.3438" stroke="none"/>
    </g>
    <g font-size="13px" stroke-linecap="butt" transform="matrix(1,0,0,1,28,-48)" text-rendering="geometricPrecision" font-family="sans-serif" shape-rendering="geometricPrecision" stroke-miterlimit="1.45">
      <text x="347.7246" xml:space="preserve" y="298.4504" clip-path="url(#clipPath2)" stroke="none">SubsystemListener</text>
      <ellipse rx="68" fill="none" ry="25" clip-path="url(#clipPath2)" cx="403" cy="293.3438"/>
    </g>
    <g fill="rgb(255,204,0)" text-rendering="geometricPrecision" shape-rendering="geometricPrecision" transform="matrix(1,0,0,1,28,-48)" stroke="rgb(255,204,0)">
      <rect x="198" width="98" height="26" y="303" clip-path="url(#clipPath2)" stroke="none"/>
      <rect x="197" y="302" clip-path="url(#clipPath2)" fill="yellow" width="1" height="28" stroke="none"/>
      <rect x="198" y="302" clip-path="url(#clipPath2)" fill="yellow" width="98" height="1" stroke="none"/>
      <rect x="198" y="329" clip-path="url(#clipPath2)" fill="rgb(178,142,0)" width="99" height="1" stroke="none"/>
      <rect x="296" y="302" clip-path="url(#clipPath2)" fill="rgb(178,142,0)" width="1" height="27" stroke="none"/>
    </g>
    <g font-size="13px" stroke-linecap="butt" transform="matrix(1,0,0,1,28,-48)" text-rendering="geometricPrecision" font-family="sans-serif" shape-rendering="geometricPrecision" font-weight="bold" stroke-miterlimit="1.45">
      <text x="228.5759" xml:space="preserve" y="320.9058" clip-path="url(#clipPath3)" stroke="none">Arena</text>
    </g>
    <g fill="rgb(255,204,0)" text-rendering="geometricPrecision" shape-rendering="geometricPrecision" transform="matrix(1,0,0,1,28,-48)" stroke="rgb(255,204,0)">
      <rect x="433" width="98" height="26" y="439" clip-path="url(#clipPath2)" stroke="none"/>
      <rect x="432" y="438" clip-path="url(#clipPath2)" fill="yellow" width="1" height="28" stroke="none"/>
      <rect x="433" y="438" clip-path="url(#clipPath2)" fill="yellow" width="98" height="1" stroke="none"/>
      <rect x="433" y="465" clip-path="url(#clipPath2)" fill="rgb(178,142,0)" width="99" height="1" stroke="none"/>
      <rect x="531" y="438" clip-path="url(#clipPath2)" fill="rgb(178,142,0)" width="1" height="27" stroke="none"/>
    </g>
    <g font-size="13px" stroke-linecap="butt" transform="matrix(1,0,0,1,28,-48)" text-rendering="geometricPrecision" font-family="sans-serif" shape-rendering="geometricPrecision" font-weight="bold" stroke-miterlimit="1.45">
      <text x="470.4346" xml:space="preserve" y="456.0698" clip-path="url(#clipPath4)" stroke="none">Sky</text>
    </g>
    <g fill="rgb(255,204,0)" text-rendering="geometricPrecision" shape-rendering="geometricPrecision" transform="matrix(1,0,0,1,28,-48)" stroke="rgb(255,204,0)">
      <rect x="361" width="98" height="26" y="365" clip-path="url(#clipPath2)" stroke="none"/>
      <rect x="360" y="364" clip-path="url(#clipPath2)" fill="yellow" width="1" height="28" stroke="none"/>
      <rect x="361" y="364" clip-path="url(#clipPath2)" fill="yellow" width="98" height="1" stroke="none"/>
      <rect x="361" y="391" clip-path="url(#clipPath2)" fill="rgb(178,142,0)" width="99" height="1" stroke="none"/>
      <rect x="459" y="364" clip-path="url(#clipPath2)" fill="rgb(178,142,0)" width="1" height="27" stroke="none"/>
    </g>
    <g font-size="13px" stroke-linecap="butt" transform="matrix(1,0,0,1,28,-48)" text-rendering="geometricPrecision" font-family="sans-serif" shape-rendering="geometricPrecision" font-weight="bold" stroke-miterlimit="1.45">
      <text x="377.0137" xml:space="preserve" y="382.2417" clip-path="url(#clipPath5)" stroke="none">SkyHandle</text>
    </g>
    <g fill="rgb(255,204,0)" text-rendering="geometricPrecision" shape-rendering="geometricPrecision" transform="matrix(1,0,0,1,28,-48)" stroke="rgb(255,204,0)">
      <rect x="303" width="98" height="26" y="550" clip-path="url(#clipPath2)" stroke="none"/>
      <rect x="302" y="549" clip-path="url(#clipPath2)" fill="yellow" width="1" height="28" stroke="none"/>
      <rect x="303" y="549" clip-path="url(#clipPath2)" fill="yellow" width="98" height="1" stroke="none"/>
      <rect x="303" y="576" clip-path="url(#clipPath2)" fill="rgb(178,142,0)" width="99" height="1" stroke="none"/>
      <rect x="401" y="549" clip-path="url(#clipPath2)" fill="rgb(178,142,0)" width="1" height="27" stroke="none"/>
    </g>
    <g font-size="13px" stroke-linecap="butt" transform="matrix(1,0,0,1,28,-48)" text-rendering="geometricPrecision" font-family="sans-serif" shape-rendering="geometricPrecision" font-weight="bold" stroke-miterlimit="1.45">
      <text x="334.6582" xml:space="preserve" y="567.0698" clip-path="url(#clipPath6)" stroke="none">Plane</text>
    </g>
    <g fill="rgb(255,204,0)" text-rendering="geometricPrecision" shape-rendering="geometricPrecision" transform="matrix(1,0,0,1,28,-48)" stroke="rgb(255,204,0)">
      <rect x="236" width="98" height="26" y="629" clip-path="url(#clipPath2)" stroke="none"/>
      <rect x="235" y="628" clip-path="url(#clipPath2)" fill="yellow" width="1" height="28" stroke="none"/>
      <rect x="236" y="628" clip-path="url(#clipPath2)" fill="yellow" width="98" height="1" stroke="none"/>
      <rect x="236" y="655" clip-path="url(#clipPath2)" fill="rgb(178,142,0)" width="99" height="1" stroke="none"/>
      <rect x="334" y="628" clip-path="url(#clipPath2)" fill="rgb(178,142,0)" width="1" height="27" stroke="none"/>
    </g>
    <g font-size="13px" stroke-linecap="butt" transform="matrix(1,0,0,1,28,-48)" text-rendering="geometricPrecision" font-family="sans-serif" shape-rendering="geometricPrecision" font-weight="bold" stroke-miterlimit="1.45">
      <text x="251.7637" xml:space="preserve" y="646.5698" clip-path="url(#clipPath7)" stroke="none">PlaneState</text>
    </g>
    <g fill="rgb(255,204,0)" text-rendering="geometricPrecision" shape-rendering="geometricPrecision" transform="matrix(1,0,0,1,28,-48)" stroke="rgb(255,204,0)">
      <rect x="375" width="98" height="26" y="608" clip-path="url(#clipPath2)" stroke="none"/>
      <rect x="374" y="607" clip-path="url(#clipPath2)" fill="yellow" width="1" height="28" stroke="none"/>
      <rect x="375" y="607" clip-path="url(#clipPath2)" fill="yellow" width="98" height="1" stroke="none"/>
      <rect x="375" y="634" clip-path="url(#clipPath2)" fill="rgb(178,142,0)" width="99" height="1" stroke="none"/>
      <rect x="473" y="607" clip-path="url(#clipPath2)" fill="rgb(178,142,0)" width="1" height="27" stroke="none"/>
    </g>
    <g font-size="13px" stroke-linecap="butt" transform="matrix(1,0,0,1,28,-48)" text-rendering="geometricPrecision" font-family="sans-serif" shape-rendering="geometricPrecision" font-weight="bold" stroke-miterlimit="1.45">
      <text x="385" xml:space="preserve" y="625.0698" clip-path="url(#clipPath8)" stroke="none">PlaneTuning</text>
    </g>
    <g fill="rgb(255,204,0)" text-rendering="geometricPrecision" shape-rendering="geometricPrecision" transform="matrix(1,0,0,1,28,-48)" stroke="rgb(255,204,0)">
      <rect x="303" width="98" height="26" y="492" clip-path="url(#clipPath2)" stroke="none"/>
      <rect x="302" y="491" clip-path="url(#clipPath2)" fill="yellow" width="1" height="28" stroke="none"/>
      <rect x="303" y="491" clip-path="url(#clipPath2)" fill="yellow" width="98" height="1" stroke="none"/>
      <rect x="303" y="518" clip-path="url(#clipPath2)" fill="rgb(178,142,0)" width="99" height="1" stroke="none"/>
      <rect x="401" y="491" clip-path="url(#clipPath2)" fill="rgb(178,142,0)" width="1" height="27" stroke="none"/>
    </g>
    <g font-size="13px" stroke-linecap="butt" transform="matrix(1,0,0,1,28,-48)" text-rendering="geometricPrecision" font-family="sans-serif" shape-rendering="geometricPrecision" font-weight="bold" stroke-miterlimit="1.45">
      <text x="312.6318" xml:space="preserve" y="509.0698" clip-path="url(#clipPath9)" stroke="none">Participation</text>
    </g>
    <g fill="rgb(255,204,0)" text-rendering="geometricPrecision" shape-rendering="geometricPrecision" transform="matrix(1,0,0,1,28,-48)" stroke="rgb(255,204,0)">
      <rect x="162" width="98" height="26" y="507" clip-path="url(#clipPath2)" stroke="none"/>
      <rect x="161" y="506" clip-path="url(#clipPath2)" fill="yellow" width="1" height="28" stroke="none"/>
      <rect x="162" y="506" clip-path="url(#clipPath2)" fill="yellow" width="98" height="1" stroke="none"/>
      <rect x="162" y="533" clip-path="url(#clipPath2)" fill="rgb(178,142,0)" width="99" height="1" stroke="none"/>
      <rect x="260" y="506" clip-path="url(#clipPath2)" fill="rgb(178,142,0)" width="1" height="27" stroke="none"/>
    </g>
    <g font-size="13px" stroke-linecap="butt" transform="matrix(1,0,0,1,28,-48)" text-rendering="geometricPrecision" font-family="sans-serif" shape-rendering="geometricPrecision" font-weight="bold" stroke-miterlimit="1.45">
      <text x="196.1941" xml:space="preserve" y="524.0698" clip-path="url(#clipPath10)" stroke="none">Prop</text>
    </g>
    <g fill="rgb(255,204,0)" text-rendering="geometricPrecision" shape-rendering="geometricPrecision" transform="matrix(1,0,0,1,28,-48)" stroke="rgb(255,204,0)">
      <rect x="596" width="98" height="26" y="453" clip-path="url(#clipPath2)" stroke="none"/>
      <rect x="595" y="452" clip-path="url(#clipPath2)" fill="yellow" width="1" height="28" stroke="none"/>
      <rect x="596" y="452" clip-path="url(#clipPath2)" fill="yellow" width="98" height="1" stroke="none"/>
      <rect x="596" y="479" clip-path="url(#clipPath2)" fill="rgb(178,142,0)" width="99" height="1" stroke="none"/>
      <rect x="694" y="452" clip-path="url(#clipPath2)" fill="rgb(178,142,0)" width="1" height="27" stroke="none"/>
    </g>
    <g font-size="13px" stroke-linecap="butt" transform="matrix(1,0,0,1,28,-48)" text-rendering="geometricPrecision" font-family="sans-serif" shape-rendering="geometricPrecision" font-weight="bold" stroke-miterlimit="1.45">
      <text x="632" xml:space="preserve" y="470.0698" clip-path="url(#clipPath11)" stroke="none">Map</text>
    </g>
    <g fill="rgb(255,204,0)" text-rendering="geometricPrecision" shape-rendering="geometricPrecision" transform="matrix(1,0,0,1,28,-48)" stroke="rgb(255,204,0)">
      <rect x="433" width="98" height="26" y="507" clip-path="url(#clipPath2)" stroke="none"/>
      <rect x="432" y="506" clip-path="url(#clipPath2)" fill="yellow" width="1" height="28" stroke="none"/>
      <rect x="433" y="506" clip-path="url(#clipPath2)" fill="yellow" width="98" height="1" stroke="none"/>
      <rect x="433" y="533" clip-path="url(#clipPath2)" fill="rgb(178,142,0)" width="99" height="1" stroke="none"/>
      <rect x="531" y="506" clip-path="url(#clipPath2)" fill="rgb(178,142,0)" width="1" height="27" stroke="none"/>
    </g>
    <g font-size="13px" stroke-linecap="butt" transform="matrix(1,0,0,1,28,-48)" text-rendering="geometricPrecision" font-family="sans-serif" shape-rendering="geometricPrecision" font-weight="bold" stroke-miterlimit="1.45">
      <text x="457.4282" xml:space="preserve" y="524.0698" clip-path="url(#clipPath12)" stroke="none">Physics</text>
    </g>
    <g fill="rgb(255,204,0)" text-rendering="geometricPrecision" shape-rendering="geometricPrecision" transform="matrix(1,0,0,1,28,-48)" stroke="rgb(255,204,0)">
      <ellipse rx="55" ry="25" clip-path="url(#clipPath2)" cx="247" cy="418.1719" stroke="none"/>
    </g>
    <g font-size="13px" stroke-linecap="butt" transform="matrix(1,0,0,1,28,-48)" text-rendering="geometricPrecision" font-family="sans-serif" shape-rendering="geometricPrecision" stroke-miterlimit="1.45">
      <text x="215.9314" xml:space="preserve" y="423.2786" clip-path="url(#clipPath2)" stroke="none">Networked</text>
      <ellipse rx="55" fill="none" ry="25" clip-path="url(#clipPath2)" cx="247" cy="418.1719"/>
    </g>
    <g fill="rgb(255,204,0)" text-rendering="geometricPrecision" shape-rendering="geometricPrecision" transform="matrix(1,0,0,1,28,-48)" stroke="rgb(255,204,0)">
      <rect x="16" width="98" height="26" y="402" clip-path="url(#clipPath2)" stroke="none"/>
      <rect x="15" y="401" clip-path="url(#clipPath2)" fill="yellow" width="1" height="28" stroke="none"/>
      <rect x="16" y="401" clip-path="url(#clipPath2)" fill="yellow" width="98" height="1" stroke="none"/>
      <rect x="16" y="428" clip-path="url(#clipPath2)" fill="rgb(178,142,0)" width="99" height="1" stroke="none"/>
      <rect x="114" y="401" clip-path="url(#clipPath2)" fill="rgb(178,142,0)" width="1" height="27" stroke="none"/>
    </g>
    <g font-size="13px" stroke-linecap="butt" transform="matrix(1,0,0,1,28,-48)" text-rendering="geometricPrecision" font-family="sans-serif" shape-rendering="geometricPrecision" font-weight="bold" stroke-miterlimit="1.45">
      <text x="25.9841" xml:space="preserve" y="419.5776" clip-path="url(#clipPath13)" stroke="none">ClientPacket</text>
    </g>
    <g fill="rgb(255,204,0)" text-rendering="geometricPrecision" shape-rendering="geometricPrecision" transform="matrix(1,0,0,1,28,-48)" stroke="rgb(255,204,0)">
      <rect x="26" width="98" height="26" y="336" clip-path="url(#clipPath2)" stroke="none"/>
      <rect x="25" y="335" clip-path="url(#clipPath2)" fill="yellow" width="1" height="28" stroke="none"/>
      <rect x="26" y="335" clip-path="url(#clipPath2)" fill="yellow" width="98" height="1" stroke="none"/>
      <rect x="26" y="362" clip-path="url(#clipPath2)" fill="rgb(178,142,0)" width="99" height="1" stroke="none"/>
      <rect x="124" y="335" clip-path="url(#clipPath2)" fill="rgb(178,142,0)" width="1" height="27" stroke="none"/>
    </g>
    <g font-size="13px" stroke-linecap="butt" transform="matrix(1,0,0,1,28,-48)" text-rendering="geometricPrecision" font-family="sans-serif" shape-rendering="geometricPrecision" font-weight="bold" stroke-miterlimit="1.45">
      <text x="33.8005" xml:space="preserve" y="353.0698" clip-path="url(#clipPath14)" stroke="none">ServerPacket</text>
    </g>
    <g fill="rgb(255,204,0)" text-rendering="geometricPrecision" shape-rendering="geometricPrecision" transform="matrix(1,0,0,1,28,-48)" stroke="rgb(255,204,0)">
      <ellipse rx="55" ry="25" clip-path="url(#clipPath2)" cx="241" cy="240.3438" stroke="none"/>
    </g>
    <g font-size="13px" stroke-linecap="butt" transform="matrix(1,0,0,1,28,-48)" text-rendering="geometricPrecision" font-family="sans-serif" shape-rendering="geometricPrecision" stroke-miterlimit="1.45">
      <text x="203.4155" xml:space="preserve" y="245.4504" clip-path="url(#clipPath2)" stroke="none">ArenaLogger</text>
      <ellipse rx="55" fill="none" ry="25" clip-path="url(#clipPath2)" cx="241" cy="240.3438"/>
    </g>
    <g fill="rgb(255,204,0)" text-rendering="geometricPrecision" shape-rendering="geometricPrecision" transform="matrix(1,0,0,1,28,-48)" stroke="rgb(255,204,0)">
      <rect x="175" width="98" height="26" y="150" clip-path="url(#clipPath2)" stroke="none"/>
      <rect x="174" y="149" clip-path="url(#clipPath2)" fill="yellow" width="1" height="28" stroke="none"/>
      <rect x="175" y="149" clip-path="url(#clipPath2)" fill="yellow" width="98" height="1" stroke="none"/>
      <rect x="175" y="176" clip-path="url(#clipPath2)" fill="rgb(178,142,0)" width="99" height="1" stroke="none"/>
      <rect x="273" y="149" clip-path="url(#clipPath2)" fill="rgb(178,142,0)" width="1" height="27" stroke="none"/>
    </g>
    <g font-size="13px" stroke-linecap="butt" transform="matrix(1,0,0,1,28,-48)" text-rendering="geometricPrecision" font-family="sans-serif" shape-rendering="geometricPrecision" font-weight="bold" stroke-miterlimit="1.45">
      <text x="188.3755" xml:space="preserve" y="167.9214" clip-path="url(#clipPath15)" stroke="none">ArenaEvent</text>
    </g>
    <g fill="rgb(255,204,0)" text-rendering="geometricPrecision" shape-rendering="geometricPrecision" transform="matrix(1,0,0,1,28,-48)" stroke="rgb(255,204,0)">
      <rect x="240" width="98" height="26" y="92" clip-path="url(#clipPath2)" stroke="none"/>
      <rect x="239" y="91" clip-path="url(#clipPath2)" fill="yellow" width="1" height="28" stroke="none"/>
      <rect x="240" y="91" clip-path="url(#clipPath2)" fill="yellow" width="98" height="1" stroke="none"/>
      <rect x="240" y="118" clip-path="url(#clipPath2)" fill="rgb(178,142,0)" width="99" height="1" stroke="none"/>
      <rect x="338" y="91" clip-path="url(#clipPath2)" fill="rgb(178,142,0)" width="1" height="27" stroke="none"/>
    </g>
    <g font-size="13px" stroke-linecap="butt" transform="matrix(1,0,0,1,28,-48)" text-rendering="geometricPrecision" font-family="sans-serif" shape-rendering="geometricPrecision" font-weight="bold" stroke-miterlimit="1.45">
      <text x="253.7437" xml:space="preserve" y="109.9214" clip-path="url(#clipPath16)" stroke="none">ClientEvent</text>
    </g>
    <g fill="rgb(255,204,0)" text-rendering="geometricPrecision" shape-rendering="geometricPrecision" transform="matrix(1,0,0,1,28,-48)" stroke="rgb(255,204,0)">
      <rect x="110" width="98" height="26" y="92" clip-path="url(#clipPath2)" stroke="none"/>
      <rect x="109" y="91" clip-path="url(#clipPath2)" fill="yellow" width="1" height="28" stroke="none"/>
      <rect x="110" y="91" clip-path="url(#clipPath2)" fill="yellow" width="98" height="1" stroke="none"/>
      <rect x="110" y="118" clip-path="url(#clipPath2)" fill="rgb(178,142,0)" width="99" height="1" stroke="none"/>
      <rect x="208" y="91" clip-path="url(#clipPath2)" fill="rgb(178,142,0)" width="1" height="27" stroke="none"/>
    </g>
    <g font-size="13px" stroke-linecap="butt" transform="matrix(1,0,0,1,28,-48)" text-rendering="geometricPrecision" font-family="sans-serif" shape-rendering="geometricPrecision" font-weight="bold" stroke-miterlimit="1.45">
      <text x="121.5601" xml:space="preserve" y="109.9214" clip-path="url(#clipPath17)" stroke="none">ServerEvent</text>
    </g>
    <g fill="rgb(255,204,0)" text-rendering="geometricPrecision" shape-rendering="geometricPrecision" transform="matrix(1,0,0,1,28,-48)" stroke="rgb(255,204,0)">
      <rect x="393" width="98" height="26" y="180" clip-path="url(#clipPath2)" stroke="none"/>
      <rect x="392" y="179" clip-path="url(#clipPath2)" fill="yellow" width="1" height="28" stroke="none"/>
      <rect x="393" y="179" clip-path="url(#clipPath2)" fill="yellow" width="98" height="1" stroke="none"/>
      <rect x="393" y="206" clip-path="url(#clipPath2)" fill="rgb(178,142,0)" width="99" height="1" stroke="none"/>
      <rect x="491" y="179" clip-path="url(#clipPath2)" fill="rgb(178,142,0)" width="1" height="27" stroke="none"/>
    </g>
    <g font-size="13px" stroke-linecap="butt" transform="matrix(1,0,0,1,28,-48)" text-rendering="geometricPrecision" font-family="sans-serif" shape-rendering="geometricPrecision" font-weight="bold" stroke-miterlimit="1.45">
      <text x="396.981" xml:space="preserve" y="197.3198" clip-path="url(#clipPath18)" stroke="none">RenderSystem</text>
    </g>
    <g fill="rgb(255,204,0)" text-rendering="geometricPrecision" shape-rendering="geometricPrecision" transform="matrix(1,0,0,1,28,-48)" stroke="rgb(255,204,0)">
      <rect x="523" width="98" height="26" y="140" clip-path="url(#clipPath2)" stroke="none"/>
      <rect x="522" y="139" clip-path="url(#clipPath2)" fill="yellow" width="1" height="28" stroke="none"/>
      <rect x="523" y="139" clip-path="url(#clipPath2)" fill="yellow" width="98" height="1" stroke="none"/>
      <rect x="523" y="166" clip-path="url(#clipPath2)" fill="rgb(178,142,0)" width="99" height="1" stroke="none"/>
      <rect x="621" y="139" clip-path="url(#clipPath2)" fill="rgb(178,142,0)" width="1" height="27" stroke="none"/>
    </g>
    <g font-size="13px" stroke-linecap="butt" transform="matrix(1,0,0,1,28,-48)" text-rendering="geometricPrecision" font-family="sans-serif" shape-rendering="geometricPrecision" font-weight="bold" stroke-miterlimit="1.45">
      <text x="552.2605" xml:space="preserve" y="157.6948" clip-path="url(#clipPath19)" stroke="none">Server</text>
    </g>
    <g fill="rgb(255,204,0)" text-rendering="geometricPrecision" shape-rendering="geometricPrecision" transform="matrix(1,0,0,1,28,-48)" stroke="rgb(255,204,0)">
      <rect x="393" width="98" height="26" y="101" clip-path="url(#clipPath2)" stroke="none"/>
      <rect x="392" y="100" clip-path="url(#clipPath2)" fill="yellow" width="1" height="28" stroke="none"/>
      <rect x="393" y="100" clip-path="url(#clipPath2)" fill="yellow" width="98" height="1" stroke="none"/>
      <rect x="393" y="127" clip-path="url(#clipPath2)" fill="rgb(178,142,0)" width="99" height="1" stroke="none"/>
      <rect x="491" y="100" clip-path="url(#clipPath2)" fill="rgb(178,142,0)" width="1" height="27" stroke="none"/>
    </g>
    <g font-size="13px" stroke-linecap="butt" transform="matrix(1,0,0,1,28,-48)" text-rendering="geometricPrecision" font-family="sans-serif" shape-rendering="geometricPrecision" font-weight="bold" stroke-miterlimit="1.45">
      <text x="410.3682" xml:space="preserve" y="118.0698" clip-path="url(#clipPath20)" stroke="none">DebugInfo</text>
    </g>
    <g fill="rgb(255,204,0)" text-rendering="geometricPrecision" shape-rendering="geometricPrecision" transform="matrix(1,0,0,1,28,-48)" stroke="rgb(255,204,0)">
      <rect x="482" width="98" height="26" y="571" clip-path="url(#clipPath2)" stroke="none"/>
      <rect x="481" y="570" clip-path="url(#clipPath2)" fill="yellow" width="1" height="28" stroke="none"/>
      <rect x="482" y="570" clip-path="url(#clipPath2)" fill="yellow" width="98" height="1" stroke="none"/>
      <rect x="482" y="597" clip-path="url(#clipPath2)" fill="rgb(178,142,0)" width="99" height="1" stroke="none"/>
      <rect x="580" y="570" clip-path="url(#clipPath2)" fill="rgb(178,142,0)" width="1" height="27" stroke="none"/>
    </g>
    <g font-size="13px" stroke-linecap="butt" transform="matrix(1,0,0,1,28,-48)" text-rendering="geometricPrecision" font-family="sans-serif" shape-rendering="geometricPrecision" font-weight="bold" stroke-miterlimit="1.45">
      <text x="503.6941" xml:space="preserve" y="588.5698" clip-path="url(#clipPath21)" stroke="none">BodyTag</text>
    </g>
    <g fill="rgb(255,204,0)" text-rendering="geometricPrecision" shape-rendering="geometricPrecision" transform="matrix(1,0,0,1,28,-48)" stroke="rgb(255,204,0)">
      <ellipse rx="55" ry="25" clip-path="url(#clipPath2)" cx="678.5" cy="545" stroke="none"/>
    </g>
    <g font-size="13px" stroke-linecap="butt" transform="matrix(1,0,0,1,28,-48)" text-rendering="geometricPrecision" font-family="sans-serif" shape-rendering="geometricPrecision" stroke-miterlimit="1.45">
      <text x="632.981" xml:space="preserve" y="550.1067" clip-path="url(#clipPath2)" stroke="none">PhysicsListener</text>
      <ellipse rx="55" fill="none" ry="25" clip-path="url(#clipPath2)" cx="678.5" cy="545"/>
    </g>
    <g fill="rgb(255,204,0)" text-rendering="geometricPrecision" shape-rendering="geometricPrecision" transform="matrix(1,0,0,1,28,-48)" stroke="rgb(255,204,0)">
      <ellipse rx="71.5" ry="25" clip-path="url(#clipPath2)" cx="572.5" cy="293.3438" stroke="none"/>
    </g>
    <g font-size="13px" stroke-linecap="butt" transform="matrix(1,0,0,1,28,-48)" text-rendering="geometricPrecision" font-family="sans-serif" shape-rendering="geometricPrecision" stroke-miterlimit="1.45">
      <text x="540.3491" xml:space="preserve" y="298.4504" clip-path="url(#clipPath2)" stroke="none">Subsystem</text>
      <ellipse rx="71.5" fill="none" ry="25" clip-path="url(#clipPath2)" cx="572.5" cy="293.3438"/>
    </g>
    <g fill="rgb(255,204,0)" text-rendering="geometricPrecision" shape-rendering="geometricPrecision" transform="matrix(1,0,0,1,28,-48)" stroke="rgb(255,204,0)">
      <rect x="539" width="98" height="26" y="394" clip-path="url(#clipPath2)" stroke="none"/>
      <rect x="538" y="393" clip-path="url(#clipPath2)" fill="yellow" width="1" height="28" stroke="none"/>
      <rect x="539" y="393" clip-path="url(#clipPath2)" fill="yellow" width="98" height="1" stroke="none"/>
      <rect x="539" y="420" clip-path="url(#clipPath2)" fill="rgb(178,142,0)" width="99" height="1" stroke="none"/>
      <rect x="637" y="393" clip-path="url(#clipPath2)" fill="rgb(178,142,0)" width="1" height="27" stroke="none"/>
    </g>
    <g font-size="13px" stroke-linecap="butt" transform="matrix(1,0,0,1,28,-48)" text-rendering="geometricPrecision" font-family="sans-serif" shape-rendering="geometricPrecision" font-weight="bold" stroke-miterlimit="1.45">
      <text x="552.3787" xml:space="preserve" y="411.2417" clip-path="url(#clipPath22)" stroke="none">Scoreboard</text>
    </g>
    <g fill="rgb(255,204,0)" text-rendering="geometricPrecision" shape-rendering="geometricPrecision" transform="matrix(1,0,0,1,28,-48)" stroke="rgb(255,204,0)">
      <rect x="109" width="132" height="26" y="571" clip-path="url(#clipPath2)" stroke="none"/>
      <rect x="108" y="570" clip-path="url(#clipPath2)" fill="yellow" width="1" height="28" stroke="none"/>
      <rect x="109" y="570" clip-path="url(#clipPath2)" fill="yellow" width="132" height="1" stroke="none"/>
      <rect x="109" y="597" clip-path="url(#clipPath2)" fill="rgb(178,142,0)" width="133" height="1" stroke="none"/>
      <rect x="241" y="570" clip-path="url(#clipPath2)" fill="rgb(178,142,0)" width="1" height="27" stroke="none"/>
    </g>
    <g font-size="13px" stroke-linecap="butt" transform="matrix(1,0,0,1,28,-48)" text-rendering="geometricPrecision" font-family="sans-serif" shape-rendering="geometricPrecision" font-weight="bold" stroke-miterlimit="1.45">
      <text x="124.4578" xml:space="preserve" y="588.5698" clip-path="url(#clipPath23)" stroke="none">PlaneClientState</text>
    </g>
    <g fill="rgb(255,204,0)" text-rendering="geometricPrecision" shape-rendering="geometricPrecision" transform="matrix(1,0,0,1,28,-48)" stroke="rgb(255,204,0)">
      <rect x="38" width="141" height="26" y="623" clip-path="url(#clipPath2)" stroke="none"/>
      <rect x="37" y="622" clip-path="url(#clipPath2)" fill="yellow" width="1" height="28" stroke="none"/>
      <rect x="38" y="622" clip-path="url(#clipPath2)" fill="yellow" width="141" height="1" stroke="none"/>
      <rect x="38" y="649" clip-path="url(#clipPath2)" fill="rgb(178,142,0)" width="142" height="1" stroke="none"/>
      <rect x="179" y="622" clip-path="url(#clipPath2)" fill="rgb(178,142,0)" width="1" height="27" stroke="none"/>
    </g>
    <g font-size="13px" stroke-linecap="butt" transform="matrix(1,0,0,1,28,-48)" text-rendering="geometricPrecision" font-family="sans-serif" shape-rendering="geometricPrecision" font-weight="bold" stroke-miterlimit="1.45">
      <text x="55.0242" xml:space="preserve" y="640.0698" clip-path="url(#clipPath24)" stroke="none">PlaneServerState</text>
      <path fill="none" d="M297.0068 309.3054 L340.0742 302.8198" clip-path="url(#clipPath2)"/>
    </g>
    <g text-rendering="geometricPrecision" stroke-miterlimit="1.45" stroke-dasharray="6,2" shape-rendering="geometricPrecision" transform="matrix(1,0,0,1,28,-48)" stroke-linecap="butt">
      <path fill="none" d="M423.8608 392.1769 L464.9173 434.4225" clip-path="url(#clipPath2)"/>
      <path d="M467.7051 437.291 L463.6446 424.5038 L467.7051 437.291 L455.039 432.8671 Z" clip-path="url(#clipPath2)" stroke="none"/>
      <path fill="none" stroke-miterlimit="10" stroke-dasharray="none" d="M467.7051 437.291 L463.6446 424.5038 L467.7051 437.291 L455.039 432.8671 Z" clip-path="url(#clipPath2)" stroke-linecap="square"/>
      <path fill="none" d="M340.2063 576.994 L300.002 624.6991" clip-path="url(#clipPath2)"/>
      <path d="M297.4243 627.7578 L309.7455 622.4484 L297.4243 627.7578 L300.5695 614.7152 Z" clip-path="url(#clipPath2)" stroke="none"/>
      <path fill="none" stroke-miterlimit="10" stroke-dasharray="none" d="M297.4243 627.7578 L309.7455 622.4484 L297.4243 627.7578 L300.5695 614.7152 Z" clip-path="url(#clipPath2)" stroke-linecap="square"/>
      <path fill="none" d="M369.4023 577.0186 L402.7512 603.8829" clip-path="url(#clipPath2)"/>
      <path d="M405.8662 606.3923 L400.2852 594.1918 L405.8662 606.3923 L392.7572 603.5368 Z" clip-path="url(#clipPath2)" stroke="none"/>
      <path fill="none" stroke-miterlimit="10" stroke-dasharray="none" d="M405.8662 606.3923 L400.2852 594.1918 L405.8662 606.3923 L392.7572 603.5368 Z" clip-path="url(#clipPath2)" stroke-linecap="square"/>
      <path fill="none" d="M447.6909 465.9875 L390.9489 489.1208" clip-path="url(#clipPath2)"/>
      <path d="M387.2448 490.631 L400.622 491.6566 L387.2448 490.631 L396.0917 480.5446 Z" clip-path="url(#clipPath2)" stroke="none"/>
      <path fill="none" stroke-miterlimit="10" stroke-dasharray="none" d="M387.2448 490.631 L400.622 491.6566 L387.2448 490.631 L396.0917 480.5446 Z" clip-path="url(#clipPath2)" stroke-linecap="square"/>
      <path fill="none" d="M352 519.0186 L352 544.041" clip-path="url(#clipPath2)"/>
      <path d="M352 548.041 L358 536.041 L352 548.041 L346 536.041 Z" clip-path="url(#clipPath2)" stroke="none"/>
      <path fill="none" stroke-miterlimit="10" stroke-dasharray="none" d="M352 548.041 L358 536.041 L352 548.041 L346 536.041 Z" clip-path="url(#clipPath2)" stroke-linecap="square"/>
      <path fill="none" d="M301.9822 510.321 L265.95 514.1542" clip-path="url(#clipPath2)"/>
      <path d="M261.9724 514.5774 L274.5398 519.2743 L261.9724 514.5774 L273.2703 507.3416 Z" clip-path="url(#clipPath2)" stroke="none"/>
      <path fill="none" stroke-miterlimit="10" stroke-dasharray="none" d="M261.9724 514.5774 L274.5398 519.2743 L261.9724 514.5774 L273.2703 507.3416 Z" clip-path="url(#clipPath2)" stroke-linecap="square"/>
      <path fill="none" d="M532.0222 456.2964 L590.0114 461.277" clip-path="url(#clipPath2)"/>
      <path d="M593.9966 461.6194 L582.5541 454.6144 L593.9966 461.6194 L581.5272 466.5704 Z" clip-path="url(#clipPath2)" stroke="none"/>
      <path fill="none" stroke-miterlimit="10" stroke-dasharray="none" d="M593.9966 461.6194 L582.5541 454.6144 L593.9966 461.6194 L581.5272 466.5704 Z" clip-path="url(#clipPath2)" stroke-linecap="square"/>
      <path fill="none" d="M482 465.9785 L482 500.9934" clip-path="url(#clipPath2)"/>
      <path d="M482 504.9934 L488 492.9934 L482 504.9934 L476 492.9934 Z" clip-path="url(#clipPath2)" stroke="none"/>
      <path fill="none" stroke-miterlimit="10" stroke-dasharray="none" d="M482 504.9934 L488 492.9934 L482 504.9934 L476 492.9934 Z" clip-path="url(#clipPath2)" stroke-linecap="square"/>
      <path fill="none" d="M360.2308 390.4277 L309.983 402.7396" clip-path="url(#clipPath2)"/>
      <path fill="white" d="M295.414 406.3093 L312.3822 408.3292 L309.5264 396.674 Z" clip-path="url(#clipPath2)" stroke="none"/>
      <path fill="none" stroke-dasharray="none" d="M295.414 406.3093 L312.3822 408.3292 L309.5264 396.674 Z" clip-path="url(#clipPath2)"/>
      <path fill="none" d="M247 330.8389 L247 378.1719" clip-path="url(#clipPath2)"/>
      <path fill="white" d="M247 393.1719 L253 377.1719 L241 377.1719 Z" clip-path="url(#clipPath2)" stroke="none"/>
      <path fill="none" stroke-dasharray="none" d="M247 393.1719 L253 377.1719 L241 377.1719 Z" clip-path="url(#clipPath2)"/>
      <path fill="none" d="M335.0554 490.9879 L285.0531 449.6393" clip-path="url(#clipPath2)"/>
      <path fill="white" d="M273.4935 440.0803 L282.0002 454.9004 L289.6474 445.6527 Z" clip-path="url(#clipPath2)" stroke="none"/>
      <path fill="none" stroke-dasharray="none" d="M273.4935 440.0803 L282.0002 454.9004 L289.6474 445.6527 Z" clip-path="url(#clipPath2)"/>
      <path fill="none" d="M114.9878 416.2395 L187.029 417.294" clip-path="url(#clipPath2)"/>
      <path d="M191.0286 417.3526 L179.1177 411.1776 L191.0286 417.3526 L178.9421 423.1763 Z" clip-path="url(#clipPath2)" stroke="none"/>
      <path fill="none" stroke-miterlimit="10" stroke-dasharray="none" d="M191.0286 417.3526 L179.1177 411.1776 L191.0286 417.3526 L178.9421 423.1763 Z" clip-path="url(#clipPath2)" stroke-linecap="square"/>
      <path fill="none" d="M109.8115 362.9999 L201.1692 399.7404" clip-path="url(#clipPath2)"/>
      <path d="M204.8803 401.2329 L195.9856 391.1888 L204.8803 401.2329 L191.5082 402.3222 Z" clip-path="url(#clipPath2)" stroke="none"/>
      <path fill="none" stroke-miterlimit="10" stroke-dasharray="none" d="M204.8803 401.2329 L195.9856 391.1888 L204.8803 401.2329 L191.5082 402.3222 Z" clip-path="url(#clipPath2)" stroke-linecap="square"/>
      <path fill="none" stroke-dasharray="none" d="M245.9014 302.8298 L242.9597 265.3279" clip-path="url(#clipPath2)"/>
      <path fill="none" d="M235.633 215.4631 L228.5713 182.7257" clip-path="url(#clipPath2)"/>
      <path d="M227.7279 178.8156 L224.3931 191.8109 L227.7279 178.8156 L236.1233 189.2806 Z" clip-path="url(#clipPath2)" stroke="none"/>
      <path fill="none" stroke-miterlimit="10" stroke-dasharray="none" d="M227.7279 178.8156 L224.3931 191.8109 L227.7279 178.8156 L236.1233 189.2806 Z" clip-path="url(#clipPath2)" stroke-linecap="square"/>
      <path fill="none" d="M273.7896 119.8701 L243.8984 146.5422" clip-path="url(#clipPath2)"/>
      <path d="M240.9139 149.2053 L253.8623 145.6927 L240.9139 149.2053 L245.8728 136.739 Z" clip-path="url(#clipPath2)" stroke="none"/>
      <path fill="none" stroke-miterlimit="10" stroke-dasharray="none" d="M240.9139 149.2053 L253.8623 145.6927 L240.9139 149.2053 L245.8728 136.739 Z" clip-path="url(#clipPath2)" stroke-linecap="square"/>
      <path fill="none" d="M175.2104 119.8701 L205.1016 146.5422" clip-path="url(#clipPath2)"/>
      <path d="M208.0861 149.2053 L203.1272 136.739 L208.0861 149.2053 L195.1377 145.6927 Z" clip-path="url(#clipPath2)" stroke="none"/>
      <path fill="none" stroke-miterlimit="10" stroke-dasharray="none" d="M208.0861 149.2053 L203.1272 136.739 L208.0861 149.2053 L195.1377 145.6927 Z" clip-path="url(#clipPath2)" stroke-linecap="square"/>
      <path fill="none" d="M492.7556 534.0149 L517.7293 566.5564" clip-path="url(#clipPath2)"/>
      <path d="M520.1646 569.7296 L517.6187 556.557 L520.1646 569.7296 L508.0989 563.8628 Z" clip-path="url(#clipPath2)" stroke="none"/>
      <path fill="none" stroke-miterlimit="10" stroke-dasharray="none" d="M520.1646 569.7296 L517.6187 556.557 L520.1646 569.7296 L508.0989 563.8628 Z" clip-path="url(#clipPath2)" stroke-linecap="square"/>
      <path fill="none" d="M532.0365 526.366 L620.5756 537.6305" clip-path="url(#clipPath2)"/>
      <path d="M624.5436 538.1353 L613.3968 530.6688 L624.5436 538.1353 L611.8823 542.5729 Z" clip-path="url(#clipPath2)" stroke="none"/>
      <path fill="none" stroke-miterlimit="10" stroke-dasharray="none" d="M624.5436 538.1353 L613.3968 530.6688 L624.5436 538.1353 L611.8823 542.5729 Z" clip-path="url(#clipPath2)" stroke-linecap="square"/>
      <path fill="none" d="M511.5757 465.9977 L626.8441 520.5522" clip-path="url(#clipPath2)"/>
      <path fill="white" d="M640.4023 526.969 L628.507 514.7011 L623.3735 525.5477 Z" clip-path="url(#clipPath2)" stroke="none"/>
      <path fill="none" stroke-dasharray="none" d="M640.4023 526.969 L628.507 514.7011 L623.3735 525.5477 Z" clip-path="url(#clipPath2)"/>
      <path fill="none" d="M631.1542 557.7222 L586.3261 569.7678" clip-path="url(#clipPath2)"/>
      <path d="M582.4631 570.8058 L595.609 573.4863 L582.4631 570.8058 L592.4951 561.8974 Z" clip-path="url(#clipPath2)" stroke="none"/>
      <path fill="none" stroke-miterlimit="10" stroke-dasharray="none" d="M582.4631 570.8058 L595.609 573.4863 L582.4631 570.8058 L592.4951 561.8974 Z" clip-path="url(#clipPath2)" stroke-linecap="square"/>
      <path fill="none" d="M460.686 207.2524 L531.0508 261.4299" clip-path="url(#clipPath2)"/>
      <path fill="white" d="M542.936 270.581 L533.9189 256.0658 L526.5981 265.5739 Z" clip-path="url(#clipPath2)" stroke="none"/>
      <path fill="none" stroke-dasharray="none" d="M542.936 270.581 L533.9189 256.0658 L526.5981 265.5739 Z" clip-path="url(#clipPath2)"/>
      <path fill="none" d="M492.4878 125.9202 L507.5 129.5 L517.5 200.5 L550.3528 255.9579" clip-path="url(#clipPath2)"/>
      <path fill="white" d="M557.998 268.8634 L555.0054 252.0395 L544.681 258.1556 Z" clip-path="url(#clipPath2)" stroke="none"/>
      <path fill="none" stroke-dasharray="none" d="M557.998 268.8634 L555.0054 252.0395 L544.681 258.1556 Z" clip-path="url(#clipPath2)"/>
      <path fill="none" d="M572.5 167.6446 L572.5 253.3438" clip-path="url(#clipPath2)"/>
      <path fill="white" d="M572.5 268.3438 L578.5 252.3438 L566.5 252.3438 Z" clip-path="url(#clipPath2)" stroke="none"/>
      <path fill="none" stroke-dasharray="none" d="M572.5 268.3438 L578.5 252.3438 L566.5 252.3438 Z" clip-path="url(#clipPath2)"/>
      <path fill="none" d="M437.0672 364.1512 L519.4595 321.0746" clip-path="url(#clipPath2)"/>
      <path fill="white" d="M532.7523 314.1248 L515.7933 316.2208 L521.3532 326.8551 Z" clip-path="url(#clipPath2)" stroke="none"/>
      <path fill="none" stroke-dasharray="none" d="M532.7523 314.1248 L515.7933 316.2208 L521.3532 326.8551 Z" clip-path="url(#clipPath2)"/>
      <path fill="none" d="M489.9762 438.0169 L551.0829 330.8902" clip-path="url(#clipPath2)"/>
      <path fill="white" d="M558.5151 317.8609 L545.3757 328.786 L555.7992 334.7317 Z" clip-path="url(#clipPath2)" stroke="none"/>
      <path fill="none" stroke-dasharray="none" d="M558.5151 317.8609 L545.3757 328.786 L555.7992 334.7317 Z" clip-path="url(#clipPath2)"/>
      <path fill="none" d="M501 293.3438 L486 293.3438" clip-path="url(#clipPath2)"/>
      <path fill="white" d="M471 293.3438 L487 299.3438 L487 287.3438 Z" clip-path="url(#clipPath2)" stroke="none"/>
      <path fill="none" stroke-dasharray="none" d="M471 293.3438 L487 299.3438 L487 287.3438 Z" clip-path="url(#clipPath2)"/>
      <path fill="none" d="M586.5352 393.1935 L578.0978 333.1676" clip-path="url(#clipPath2)"/>
      <path fill="white" d="M576.0098 318.3136 L572.2954 334.993 L584.1786 333.3227 Z" clip-path="url(#clipPath2)" stroke="none"/>
      <path fill="none" stroke-dasharray="none" d="M576.0098 318.3136 L572.2954 334.993 L584.1786 333.3227 Z" clip-path="url(#clipPath2)"/>
      <path fill="none" d="M538.5173 408.7819 L316.8546 415.9218" clip-path="url(#clipPath2)"/>
      <path fill="white" d="M301.8624 416.4047 L318.0473 421.8865 L317.6609 409.8927 Z" clip-path="url(#clipPath2)" stroke="none"/>
      <path fill="none" stroke-dasharray="none" d="M301.8624 416.4047 L318.0473 421.8865 L317.6609 409.8927 Z" clip-path="url(#clipPath2)"/>
      <path fill="none" stroke-dasharray="none" d="M202.129 598.5044 L258.6577 628.5151" clip-path="url(#clipPath2)"/>
      <path fill="none" stroke-dasharray="none" d="M179.9877 638.6327 L234.9807 640.658" clip-path="url(#clipPath2)"/>
    </g>
  </g>
</svg>
